<svg id="Theme" xmlns="http://www.w3.org/2000/svg" xmlns:xlink="http://www.w3.org/1999/xlink" viewBox="0 0 2000 1333"><defs><style>.cls-1{fill:none;}.cls-2{fill:url(#linear-gradient);}.cls-3{fill:#fff;}.cls-4{clip-path:url(#clip-path);}.cls-5{clip-path:url(#clip-path-2);}.cls-6{fill:#0d6c4d;}.cls-7{fill:#04993e;}.cls-8{fill:#00be4d;}.cls-9{fill:#030303;}.cls-10{opacity:0.5;}.cls-11{clip-path:url(#clip-path-3);}.cls-12{fill:#393939;}.cls-13{fill:#f6f7f7;}.cls-14{fill:#3fb685;}.cls-15{fill:#273326;}</style><linearGradient id="linear-gradient" x1="1000" y1="-13.9" x2="1000" y2="1330.05" gradientUnits="userSpaceOnUse"><stop offset="0" stop-color="#c0e6ec"/><stop offset="1" stop-color="#fff"/></linearGradient><clipPath id="clip-path"><rect class="cls-1" x="-3.5" y="741.87" width="2003.5" height="591.13"/></clipPath><clipPath id="clip-path-2"><rect class="cls-1" x="-0.53" y="744.25" width="2003.5" height="591.13"/></clipPath><clipPath id="clip-path-3"><rect class="cls-1" x="224.64" y="1114.08" width="183.45" height="112.6"/></clipPath></defs><title>Artboard 2</title><rect class="cls-2" x="-3.59" y="-13.9" width="2007.18" height="1343.95"/><path class="cls-3" d="M230.69,547.06c50.64,4.54,81,2.27,122.1,6.81s137.83-13.24,137.83-13.24-94.51,36-158.09,35.57-92.83-16.65-160.35-10.59S54.59,586,54.59,586,180.05,542.52,230.69,547.06Z"/><path class="cls-3" d="M1683.36,825.39c-49.5-11.59-79.9-13.6-119.93-23.85s-138.34-6.19-138.34-6.19,98.62-22.36,161.52-13.08,89.59,29.49,157.28,33,119.3-3.76,119.3-3.76S1732.87,837,1683.36,825.39Z"/><path class="cls-3" d="M1488.63,148.72s78.9-22,118.53-19.53,54,8.54,82.85,12.21,67.73-15.85,89.34-12.4,41.07,10.36,65.57,13.21,92.21,4.07,92.21,4.07-132.56,10.58-181.55,10.18-88.33-12.21-117.66-9.36-123.56,21.16-153.17,17.09-82.94-10.58-82.94-10.58,57-.41,69.58-2.44S1488.63,148.72,1488.63,148.72Z"/><g class="cls-4"><g class="cls-5"><path d="M1159.41,1221.29q5.47,49.5,10.93,99,29.06-3.21,58.17-5.55-2.21-27.4-4.4-54.8c-1.25-15,10.77-28.3,26.86-29.36s29.75,10.51,30.49,25.57l2.83,54.91q15.92-.83,31.85-1.39l-2-54.94c-.57-15.07,12-27.79,28.13-28.12s29.24,11.82,29.3,26.9q.2,27.49.38,55,15.93-.11,31.86,0,.27-27.49.52-55c.1-15.08,13.25-27.22,29.36-26.83s28.68,13.12,28.07,28.19q-1.05,27.46-2.08,54.94,15.91.6,31.84,1.46l3-54.9c.77-15.06,14.46-26.59,30.55-25.49s28.08,14.39,26.79,29.42q-2.27,27.39-4.54,54.79,26.72,2.22,53.38,5.16,4-49.65,7.91-99.32a2060.7,2060.7,0,0,0-449.22.33"/><path class="cls-6" d="M1738,1186.67a125.59,125.59,0,0,1,.52-16.57c.44-4.69.88-9.32-.13-14a20.73,20.73,0,0,1,2.09-15,115.79,115.79,0,0,1,8.34-12.36c.78-1,1.32-.57,2.08-.17a17.08,17.08,0,0,0,9.71,2.25c1.89-.18,3.52-.86,4-2.78.39-1.41,1.06-1.47,2.28-1.27a18.27,18.27,0,0,0,12.79-2.23c2.35-1.4,4.28-3.36,3.57-6.3-.52-2.13.27-2.54,2-3.08,4.21-1.31,5.63-4.33,3.59-7.94a30.82,30.82,0,0,1-3.78-10.49,3.36,3.36,0,0,0-1.67-2.54,3.37,3.37,0,0,1-1.81-3c-.31-3-2.06-4.61-5.07-5a8.19,8.19,0,0,0-6,1.23c-.89.65-1.26.71-1.67-.57-.89-2.78-2.78-4.52-5.89-4.49a2.31,2.31,0,0,1-2-1,6.37,6.37,0,0,0-4.54-2.36c-2.85-.22-5.63.17-8.54-1-1.76-.74-1.9-1.74-2.55-2.91-.78-1.39.58-1.61,1.08-2.3a5.33,5.33,0,0,0,.73-1c.47-1.13,1.06-1.18,1.83-.31a12.34,12.34,0,0,0,8.91,4.06,18.86,18.86,0,0,1,8,2.22c5.86,3,12.24,2.73,18.4.5,3.29-1.19,3.88-2.3,3.26-5.77a1.88,1.88,0,0,1,1.17-2.39c2.87-1.6,3.37-4.23,3.06-7.23-.28-2.83-1.8-5-4.38-5.59s-3.15-1.77-2.85-4a4.16,4.16,0,0,0-.16-1c-.51-1.13-1.33-2.06-1.56-3.38s-1.8-1.68-2.91-2.14a2.7,2.7,0,0,1-2-2.85c.07-2.06-.08-4-2.86-4.22-.67-.06-1.09-.77-1.31-1.5-1.12-3.68-4.13-5-7.62-3.41-2.43,1.13-2.59,1.06-3.41-1.56-.63-2-4-3.26-6.47-2.37-.58.22-1.11.65-1.77.55-3.12-.45-5.86,1-8.67,1.86-1.7.54-2.49,2.43-3.2,3.92a14.6,14.6,0,0,0-1.15,3.3c-.29,1.42-1.07,2.25-2.69,1.26s-3.46-1.65-5,.35c-.31.4-.91.27-1.4.23a.26.26,0,0,0-.09.24c0,.43-.12.67-.58.66-1.71,2.72-1.41,5.53-.37,8.38,1.89,2.56,4.37,3.6,8,2.62-2.37,3.75-3.49,7.57-5.17,11.14-.41.86-.81,1.26-1.62.23a11.33,11.33,0,0,0-5.46-4.1c-.7-.23-1.13-.6-.72-1.39,1.44-2.69,1.43-5.64,1.62-8.57a16.16,16.16,0,0,0-2.27-7.73c-2.24-3.46-6.22-5.45-9.9-1.59-.93,1-1.68,2-3.28,1.26-.71-.3-1.3.38-1.82.83-2.3,2-3.4,4.69-4.48,7.41-.09,1.66-1,2.4-2.6,2.07-1.15-.22-2.76.89-3.35-.18-1.36-2.46-2.33.32-3.44,0-.14,1.68-.88,1.38-1.69,1a8,8,0,0,1-.93,1.24,4.61,4.61,0,0,1-1.33,1c.19.28.31.56,0,.88s-.77,0-1.09-.27l-.17-.15a7.08,7.08,0,0,1-.9.16,3.28,3.28,0,0,1-1.62,3.41.87.87,0,0,0-.36,1.26c.23.46.9,1,.17,1.41s-.88-.41-1.26-.76a8.16,8.16,0,0,0-1-.67,1.8,1.8,0,0,0-.19.2c-.09,1.32-.77,1.81-1.53,1.63a8.84,8.84,0,0,1-.87,1.14,4.53,4.53,0,0,1-.68.64c0,.38-.08.73-.3.67a1.84,1.84,0,0,0-.73-.09,3.75,3.75,0,0,1-.47.17c-.51.36-.64,1.17-1.07,1.63a5.51,5.51,0,0,0-1,5.92c1.68,3.85,5.87,5.51,10.49,4.16.56-.16,1.28-.69,1.57.25.2.63.31,1.41-.5,1.85-.25.13-.49.27-.74.39a5.43,5.43,0,0,0-3.18,5.43,6.38,6.38,0,0,1-1.08,3.73,6.47,6.47,0,0,0,2.12,8.82,2.16,2.16,0,0,1,1.36,2.09,7.61,7.61,0,0,0,.39,2.26c.34,1,.17,1.57-1,2a5.52,5.52,0,0,0-4,5.14c0,.6-.16,1.07-.87,1.24-2.86.71-5.49,2.21-8.57,2.23a9.23,9.23,0,0,0-3.63,1,3.15,3.15,0,0,0-1.35,4.59,3.86,3.86,0,0,0,2.9,1.55c4,.16,5.53,1.9,5.33,6.07-.15,3.18,2.48,5.69,4.82,5.75a7,7,0,0,1,6.08,3.42,6.27,6.27,0,0,0,5.51,2.9c3.16.06,5.14-1.7,6.58-4.53.33.63.55,1,.72,1.36a40,40,0,0,0,16.48,17.74c1.5.86,1.65,1.68,1.16,3.16a139.16,139.16,0,0,0-6.8,34.07c-30.59,5.33-60.78,6.81-74.57,19.34-83.22,75.65-30.11,74-94.34,77.53-73.36,4.09-161,39.11-161,39.11l628.38-1.86L2016.2,1179s-195.29-4.73-278.24,7.63m-45.06-66.48c-.58-.22-1.86.43-1.89-.45a8.81,8.81,0,0,1,1-3.58c.34-.81,1.1-.22,1.68-.16a1.36,1.36,0,0,1,.41.08c.94.56,2.64-.35,3,1.09.25,1.06-2.69,3-4.16,3m33.41-33.63c.54-4,1-8,2.77-11.73a5.9,5.9,0,0,1,.53-.73c3.21,3.75,1.66,9,4.59,12.9-1.92.06-3.23.34-4.29,1.46a2.93,2.93,0,0,1-3.35.39c-.89-.37-.35-1.5-.25-2.29m-1.48,52.34c.25-2.84.05-5.72.05-9a10.85,10.85,0,0,0,7.68,2.59c.82-.07,1,.44,1.21,1.13a8.71,8.71,0,0,0,2.46,4.55c.77.66.73,1.25,0,1.91a53.89,53.89,0,0,0-7.94,9.5c-.77,1.16-1.23.82-1.58-.33-1.06-3.38-2.24-6.69-1.91-10.38m-19.16-31.32a1.4,1.4,0,0,1,1.44-2c1.7,0,2.94-1,4.38-1.66,1.77-.81,3.88-.89,5.86-1.21.67-.11.74.53.71,1-.37,6-.12,12.15-2,18a10.15,10.15,0,0,1-1.25,2.64c-.73,1.08-1.73,1.95-3.18,1.32-1.28-.56-2.52-1.16-2.38-3,.33-4.29-2-6.42-6.73-7,4.06-2.06,4.52-4.76,3.14-8.15m3.82,49.86a17.47,17.47,0,0,1-7-6c2.7.51,5.2.45,7.33-1.44a4.13,4.13,0,0,0,1.63-3.47,15.68,15.68,0,0,0-2.26-8.08c-.8-1.23.37-3,.26-4.49.95-.08,1,.6,1.27,1,3,5.91,4.87,12.07,4.51,18.79-.21,3.9-2.08,5.15-5.69,3.64"/><path class="cls-7" d="M825.54,1303.69s173-81.48,223.66-92.38c29.19-6.28,92,2.58,120.37,9s61.11,31.69,85.61,42,62.49,50.09,62.49,50.09l-2.52,25.83H825.54Z"/><path class="cls-8" d="M992,1345.27c-2.19-.49-4.38.28-6.54,0-1.31-.19-3.07,1.09-3.74,0s1.7-1.12,2.13-2.17c.23-.58.72-1.11.37-1.78-.21-.41-.57-.45-1-.35-2.12.47-4.14,2.87-4,5,.09,1.08-.47,1.21-1.31,1.22a5.17,5.17,0,0,1-4.72-2.65c-.89-1.41-1.78-3-3.91-3-.93,0-1.67.07-1.36,1.33.66,2.7.6,2.72-2.26,2.06a20.32,20.32,0,0,1-2.68-.71c-.7-.27-1.51-.78-1.23-1.57.36-1.06,1.2-.35,1.86-.17s1.15.64,1.44-.23a1,1,0,0,0-.78-1.31,15.87,15.87,0,0,0-4.18-.87c-.9-.07-2-.15-2.42-1-.82-1.51,1.87-5.51,3.68-5.57,1.19,0,2.38,0,3.55-.09.84-.09,1.77-.37,1.67-1.42s-1.05-.85-1.78-.86c-1.1,0-2.2,0-3.3,0-.75,0-1.45-.22-1.37-1,.21-2-1.08-3.63-1.4-5.47-.75-4.33.24-5.2,3.91-4.86,2.41.22,4.17-.42,4.29-3.23,3.08,2.54,6.41,4.35,8.85,7.52a3.22,3.22,0,0,0-1.12-4.52c-.85-.64-1.82-1.15-2.73-1.73-2.23-1.42-2.23-2.76.11-4a18.76,18.76,0,0,1,5.8-1.58c2.38-.43,4.92-.3,7-1.79.9-.65,1.94-1.41,1.37-2.48-.49-.92-1.65-.31-2.53-.13-7,1.46-12.94,4.93-18.75,8.66a5.17,5.17,0,0,1-7.45-1.55,21.41,21.41,0,0,1-1.48-3,13.68,13.68,0,0,0-2.24-3.41c-.59-.71-2.35-.64-1.94-1.79s2-.43,3-.76c.12,0,.18-.22.28-.36-1.15-1.84-3.27-2.4-5.13-3.28s-3.38-1.79-3.84-3.56c-.41-1.56-1.29-1.81-2.7-1.69-2.47.2-4.83-.13-6.47-2a29,29,0,0,1-3.29-4.75c-1.89-3.35-4.09-6.39-8.07-7.82-1.09-.39-.92-.91-.51-1.62,1.08-1.86,2.64-1.2,4.19-.74.6.18,1.41.71,1.68-.24.23-.8-.65-1-1.27-1.19a19.9,19.9,0,0,0-4.76-.6c-2.83,0-3.35-.62-3.43-3.23-.12-3.51.51-7.09-1-10.5-.41,0-.63,1-1.17.25a11,11,0,0,1-.82-1.46c-1.57-2.83-2.95-3.25-5.84-1.52a13.89,13.89,0,0,1-7.83,2.32,5.89,5.89,0,0,1-5.08-2.57c-1.33-1.91-2.35-4-4.08-5.68-1.23-1.2-2-1.5-2.85.32-.76,1.66-1.82,3.2-2.75,4.79-1.13,1.92-2.35,2.24-4.21.86-2.56-1.92-4.56-4.23-5.07-7.39-.12-.72-.12-1.62-.82-1.9-1-.38-1.42.63-2,1.14-2.18,1.89-3.27,4.52-5.17,7-.59-1.72-1.16-3.11-1.55-4.54-.45-1.63-1.36-2.84-3.26-2.74a3.65,3.65,0,0,0-3.61,2.83c-.22.83-.37,1.68-.65,2.94-1.14-2.37-1.25-4.61-1.74-6.74-.87-3.75-2.11-7.27-5.19-10.05-1.14-1-1.79-.91-2.91,0-2.15,1.76-2.54,4.18-3.23,6.91a20.08,20.08,0,0,1-5-5.72c-1.07-1.6-2-3.3-3-5-.28-.47-.38-1.22-1-1.25-.85,0-.89.84-1.18,1.36-2.38,4.44-4.64,9-8.17,12.75-.42.47-.9.9-1.58,1.57a23,23,0,0,0-8.14-12.65c-.49-.41-.93-1.06-1.7-.82s-.56,1-.62,1.65c-.37,3.6-.68,7.2-1.12,10.79-.1.82-.2,1.91-1.12,2.27-1.1.44-1.55-.7-2.2-1.24a13.27,13.27,0,0,1-3.33-4.42c-.66-1.32-1.39-1.3-2.51-.38-1.79,1.46-2.6,3.46-3.69,5.33-.47.8-.8,2-1.82,2.06s-1.1-1.26-1.48-2c-1.43-2.85-2.77-5.75-4.16-8.62-.85-1.76-1.93-2-3.69-.78-2,1.4-2.84,3.47-4.13,5.42-1.23-.82-1.73-2-2.52-3-1.78-2.25-2-2.29-4-.11a38.15,38.15,0,0,0-2.39,3.18c-1.3-2.73-2.48-5.39-3.83-8-1.15-2.2-2.15-2.24-3.52-.19-.8,1.19-1.25,2.58-2,3.84-.33.6,0,1.7-.86,1.79s-1.08-1-1.53-1.66q-1.86-2.54-3.65-5.1c-.87-1.24-1.58-1.13-2.48,0s-1.84,2-2.89,3.08c-1.92-2.68-2.31-5.72-3.55-8.45-1.93-4.22-2.49-4.44-6.47-2a13.49,13.49,0,0,0-4.46,4.75c-.85,1.45-1.48,1.2-2.25-.07-1-1.68-1.27-3.57-1.89-5.36-.78-2.23-1.37-2.41-3.37-1-3.73,2.59-5.8,6.29-7.57,10.17-.2.42-.41.84-.72,1.45-1.23-1.22-1.31-2.67-1.82-3.94-.93-2.27-1.61-4.66-3.49-6.49-1.73-1.68-3-1.6-4.62.15a35,35,0,0,0-5.82,9.1c-.6,1.25-1.13,1.65-2.37.69a29.73,29.73,0,0,1-3.77-2.76c-1.44-1.54-2.38-1.13-3.64.13a13.53,13.53,0,0,0-3.56,5.38c-.41,1.24-.89,2.48-1.51,4.19-1.15-3-2.05-5.49-3.09-7.94a28,28,0,0,0-2.51-4.9c-1.6-2.34-3.72-2.45-6-.61a12.72,12.72,0,0,0-2.91,3.43,220,220,0,0,0-1.34-23.24c-.78-6.88,2.63-10.36,8.1-13.3,3.89-2.08,7.34-5,10.67-7.32-1.12-2.71-1.85-4.46-3.22-7.75,4.09,2.2,6.62,3.47,9.06,4.88,4.91,2.84,6.55,2.28,8.65-3.06l17.74,7c-.78-2.72-1.32-4.63-2-7.16,2,.58,4,.62,5.22,1.63,4.09,3.37,7.86,7.11,11.85,10.59.44.38,1.55,0,2.34,0,8.69-.81,17.44,2.36,26.1-.37a1.29,1.29,0,0,1,.57.08c4.51.92,8.29-1.91,9.23-6.41l-21-5.32c0-5-5-5-7-7.85,2.3-1.57,4.49-4.24,7-4.51,6.39-.73,6.55-4.52,6.11-8.52l-9.66-4.32-10.3,1.56-.26-1.58c1.88-2.46,3.75-4.93,5.4-7.1-1.63-.64-3.92-1-4.07-1.7a69.74,69.74,0,0,1-.85-9l-20.23-2.5,4.52-7.54c-1.37-3.11-2.61-5.9-3.84-8.68l-2,2.51v-6.77c7.32-1,7.32-1,9.75,4.19,4.53,0,8.08-7.11,13.45-2.17.12.11.89-.59,1.41-.8,5.73-2.33,11.54-4.48,17.16-7,1.74-.79,3-2.69,4.44-4.08l-1.26-1.14c-3.88,1.2-3.88,1.2-5.1-4.82-9.71,3.69-9.71,3.69-14.06.31,1.27-2,2.67-4,3.75-6.16.42-.84.15-2,.19-3-1.15.12-2.31.16-3.44.39-1.56.32-3.8,1.64-4.52,1-4.29-3.55-8.94-4.48-14.32-3.59-2.34.4-4.81.23-4.29-3.6.16-1.18-1.17-2.57-1.5-3.24l-7.73,9.29c-1.28-3-2.53-5.8-5.61.39-1-4.88-1.58-7.93-2.45-12.32H688.83c-.4-3.81-2.74-4.94-7.88-3.06-2.58,1-6.14-.75-10.49-1.46-3.36,2.93-12.56-.26-14.32,9-2.58-3.25-4.54-5.7-6.44-8.08l-4.44,3.83-8.07-8.73c0-.06-.19-1.69-.36-3.33l-1.23,0-1.41,3-13-2.57c-1.61,6.17,4.18,9.29,7.75,14.4-2.36.22-4.78,1.22-6.19.43-2.92-1.65-5.31-4.24-8.08-6.58l-2.58,3.12L609,1082.4v7.28c-1.36.84-3.23,1.32-3.8,2.45-3.35,6.67-7.12,3.36-11.15.89a6.64,6.64,0,0,0-4.29-.49c-2.12.39-5.71,1-5.9,2-.37,2.08-1.58,5.25,2,6.84,1.12.49,1.57,2.46,2.33,3.76l-1.34.73L583,1104c1,3.22,1.8,5.72,2.66,8.43l4.9.27c-.29,1.79-.57,3.51-.89,5.53l-4.13-3-4.19,5.75c-1.31-1.07-2.38-1.87-3.35-2.77-2.89-2.65-5.32-4.83-7.36,1.06-.88,2.55-3.64,4.44-6.27,7.46-.82-3.61-1.21-5.34-1.9-8.36l-5.76,6.12-2.32-1.36-1.41,1.66,8.48,7.93c-3.34,6-7.65-1.57-12-.86.58,2.39,1.15,4.81,2,8.54l-9-3.47c-2.54,5.43-5.06,11.12-2.13,15.85-2.49.48-5.36,1.2-8.27,1.54-1.62.19-3.39-.61-5-.32a66.45,66.45,0,0,0-7.46,2.24c1.41,3.07-.35,4.2-2.83,5.47-.84.43-1.38,3.09-.87,4.16,1,2,2.83,3.66,4.31,5.45l-1.34-.55-2.09,8-11.28,4.78c-1.86,5.75,0,8.91,5.23,11.15,4.35,1.86,6.25-1.47,9.17-2.71-.42,1.55-.82,3.13-1.28,4.88,5.68,2.13,13.44-1.09,16.85,6.9,8.2-4.9,16.59-9.47,24.45-14.8,4.12-2.79,6.36-2.22,8,1.6,5.56-2.92,11.93-2.74,17.42-4.21,6.72-1.79,11-7,17.62-8.23l-2.68,4.09c4.38-3.13,8.31-4.6,12.61-.39a1.89,1.89,0,0,0,1.76.11c2.77-3.55,3.64,1.09,5.52,1.42,1,.18,1.7,2.44,3.17,4.8a16.32,16.32,0,0,0,2.66,3.45c3.21,2.69,7,4.79,9.86,7.76,1.74,1.78,2.29,4.73,3.5,7.45,3.26-3,6.94-1.15,10.6,2.32,2.34,2.23,5.61,3.61,7.55,6.09,3,3.8,6.61,8,7.39,12.42.57,3.33,1.08,6.67,1.55,10-.64-.48-1.09-.18-1.59.59a37.12,37.12,0,0,0-3,5.46,33.57,33.57,0,0,1-8-9.46c-.63-1.21-1.24-1.37-2.54-1-3,.77-4.59,3-6.38,5.38-1.64-2.21-2.19-4.71-3.43-6.9-2.15-3.79-2.52-3.86-5.13-.32a29.51,29.51,0,0,0-1.9,3.07c-.53,1-.95,1.94-1.58,3.26a40.22,40.22,0,0,1-1.94-4c-.54-1.49-1.26-1.34-2.41-.6a36.14,36.14,0,0,0-6,5.39c-1,1-1.44,1.05-2-.28-.53-1.15-1.41-2.15-2-3.28-1-1.93-1.92-1.24-2.8,0a20.86,20.86,0,0,0-3.17,6.41c-.42,1.52-1.06,1.32-2,.37-4.92-4.93-5-4.93-8.11,1.41-.43.88-.74,1.2-1.58.46l-.72-.67c-2.51-2.26-2.55-2.3-5.14-.12-1,.81-1.43.78-2-.31-1-1.8-2.18-3.55-3.31-5.31a5,5,0,0,0-2.45-2.16l-2.93,8.28a18.31,18.31,0,0,1-2.28,4.47c-1.38,2-2.78,3-4.28,3.19-2.92-1.79-4.86-2.37-6.61-1.88s-3.34,2.07-5.55,4.6c-3.16,0-5.05-5-7.58,0-3.16,6.93.63,15.13-4.42,20.8-3.16,3.15-4.42-2.52-6.31-4.41-1.27,1.26,0,4.41-1.27,5-5.68,1.89-6.31-5.67-8.21-8.83.63,2.53-1.26,4.42,0,6.94-3.15-.63-5.21-2.52-7-4.65s-3.4-4.49-5.6-6c.52,1.26,1.27,2.86,2.12,4.65s1.78,3.78,2.67,5.79c3.55,8,6.36,16.44-.38,14.76a8.91,8.91,0,0,1-3.58-2,18.66,18.66,0,0,1-3.15-3.67,63.05,63.05,0,0,1-7.79-21.47c-3.79,5-2.53,11.35-5,17a20.38,20.38,0,0,1-2.53-8.82c-5.05,2.52-5.68,8.19-5.05,13.24-4.42-3.79-.63-16.4-7.58-13.24-4.42,1.89-2.53,8.82-3.79,13.87-4.42-4.42-4.42-10.09-7.58-15.13a8.43,8.43,0,0,1-5.05,8.82c-6.32,1.26-12-3.78-13.89-10.09-.64-1.89-1.9-3.78-4.43-3.15a13,13,0,0,0-7.13,5.09c-3.6,4.72-5.71,11.3-11.18,15.09-9.47,6.3-18.32-1.9-25.89-5.68-5.69-3.15-13.9-7.56-18.89-13.23-1.62-1.58-3.69-1-5.9.39s-4.58,3.39-6.79,4.65a4.84,4.84,0,0,1-2.53-1.26c-4.42,3.15-9.47,7.56-15,5.79a34.76,34.76,0,0,1-5.29-1.38c-5.39-1.8-11-4.52-15.74-5-1.9,0-3.16,3.78-5.69,5-.63-3.15-3.15-3.15-5.95-2.1a40.45,40.45,0,0,0-4.65,1.12c-2.66.35-3.92,2.24-6.45,2.24-5.45,0-11.34-.44-17.24-.57-2,0-3.94,0-6,0-7.72-.06-15.93,1.83-22.25,6.24a8.46,8.46,0,0,0-3.79-8.82c-5.05-3.78-11.37-5.68-16.42-1.26,0-.63.63-1.26.63-1.89-3.79-4.42-8.21,1.89-6.94,5.67-3.79-4.41-10.11-4.41-15.27-3.68a25.42,25.42,0,0,0-5,1.66,42.87,42.87,0,0,0-8.65,5.2,39.75,39.75,0,0,0-5.2,5.65c-3.15,4.41-8.21-1.27-12.63-3.16v.63c-3.79-1.26-5.05-5.67-6.94-7.56-1.9-2.52-2.53,3.78-5.06,3.78-4.42.63-6.31-5-7.58-8.82-2.52,2.52-2.52,6.3-4.42,8.82,3.16,1.26,8.21.63,7.58,3.15-.94,4.1-3.79,4.1-7.13,2.77a54.31,54.31,0,0,1-5.23-2.62c-1.52-.55-3-1.13-4.49-1.71s-2.95-1.16-4.42-1.71c-3.36-.51-5.88-2.4-9-1.77-8.84,3.78-15.79-1.26-24.63-1.89-3.16,0-2.53,5-1.26,8.19-8.21-2.52-12-8.82-15.16-17-1.26-1.89-3.16-3.15-5-2.52-5.06,3.15,0,8.83-3.16,12.61-1.9,1.58-2.84,1-3.5-.38s-1-3.36-1.77-4.56c-3.57-6.41-9.89-2-14.31,1.79-1.26.63-3.16,1.26-4.42.64-2.53-1.27-5.68-3.16-8.21-2.53-7.26,1.89-15.31,4.57-23.13,5.35a45.63,45.63,0,0,1-5.84.23,30.52,30.52,0,0,1-16.5-5c1.89,3.15-1.26,4.41-2.53,6.93-1.26-.94-1.57-2.68-1.81-4.25a5.36,5.36,0,0,0-1.34-3.31c-4.42,0-5.69,4.41-8.85,6.93.64-2.52,3.16-6.3,0-6.93-4.42-.63-5,5-7.57,7.56C6,1268.33-.92,1269-6.6,1272.74c-1.89-2.52-3.79-7.57-5.68-6.31-8.85,7.57-17.06,17-12.63,30.27a3.78,3.78,0,0,1-2.3,4.72c-1.45,1.35-1.19,3,.82,3.84,1.31.55,1.15,1.15.52,2a17.71,17.71,0,0,0-2.83,6.3c-3,10.62-2.26,21.41-1.34,32.17.16,1.9-.1,4,1.29,5.94,2.16-2.69.5-5.38.28-8,1.69.11,2.7,1.2,4,1.72,6.9,2.77,14.28,3.06,21.56,3.73a82.8,82.8,0,0,1,19,3.68c2.88,1,8.13-.76,9.56-3.27.35-.61.7-.94,1.34-.61,2,1,4.23,1.08,6.3,1.76,1.26.41,2.4.89,1.68,2.54-.42,1,.27,1.6,1.26,1.57,1.72-.06,4.09.28,4.88-1.06,1-1.68-1.39-2.09-2.57-2.83a1.1,1.1,0,0,1-.21-.14c-.36-.32-.9-.59-.68-1.14s.86-.47,1.32-.41c2.33.3,4.73.27,7,1.15,1.19.48,2.39,1.15,2.52,2.44.17,1.82,1,1.14,1.9.61a7,7,0,0,1,5.85-.51c1.37.47,2.77.87,4.48,1.4a5,5,0,0,1-.26-3.59c.19-.44.43-.92,1-.94a1,1,0,0,1,1,.88c.16.52.16,1.08.27,1.62s-.4,1.68.59,1.82,1.55-.75,1.76-1.48c.71-2.56,1.47-1,2.25-.08a11.05,11.05,0,0,1,.72,1,3.05,3.05,0,0,0,3.28,1.3c1.55-.24.89-1.45,1.06-2.29.09-.44-.11-1.06.57-1.15s.9.46.88.93c-.11,2.61,1.68,2.21,3.41,1.91a99.15,99.15,0,0,1,13.32-1.21c11.85-.45,23.65.62,35.47.88a54.64,54.64,0,0,0,11.14-.37c1.19-.21,3.33-.53,3.16,1.3-.35,3.69,1.64,3.6,4.37,2.92a4.85,4.85,0,0,1,1,0c4.6-.12,9.06.84,13.51,1.68,2.41.45,4.19,0,5.14-2.2a1.21,1.21,0,0,1,1.54-.81c3.49.52,7,.93,10.48,1.57,1.54.28,2.3.11,2.2-1.48-.11-1.85.89-1.45,2-.89a28,28,0,0,0,7.58,2.63,115.73,115.73,0,0,0,18.13,1.43c2,0,3.45-.07,3.57-2.4a2.32,2.32,0,0,1,1.87-2.29c1.34-.29,2.07.62,2.64,1.47,1,1.47,1.92,2.25,3.41.5a1.13,1.13,0,0,1,1.54-.4c.55.37.4,1,.38,1.54-.05,1.18-1.17,1.9-1.52,3h0a10.8,10.8,0,0,0,4.47-.67c2.62-.89,5.18-1.31,7.75.31,1.33.84,2,.17,2-1.23v-4.57a26.22,26.22,0,0,1,5.26,7.45c.24.49.15,1.5,1.15,1.23.75-.2.7-1,.7-1.64,0-1.34,0-2.68,0-4,0-1.1.24-1.73,1.6-1.08a14.28,14.28,0,0,0,4.91,1c1.82.17,4.2.06,5.22,1.45,2.78,3.79,5.07,1.3,7.52-.11a10.15,10.15,0,0,0,1.58-1.18c1.33-1.17,2.43-.73,3.46.37a3.84,3.84,0,0,1,1,2.38c.12,1.75,1,2,2.51,1.39a12.81,12.81,0,0,1,2-.45c10-2,20-3.65,29.83.4,1,.42,1.39-.06,1.72-.77,1.11-2.36,3.28-2.94,5.78-3.11,3.68-.25,7.23.47,10.81,1,1.53.24,3.1,1.06,2.46-1.63-.21-.86.82-1.64,1.61-2.49,1.4,2,3.83,2.89,5.3,4.71.7.87,1.24.92,2.29.49a13.82,13.82,0,0,1,6.88-.87c3.93.43,7.79,1.55,11.81,1.16,1.14-.12,2.84.31,3.12-.9s-1.59-1-2.43-1.5c-.07,0-.17,0-.24-.08-.58-.26-1.15-.69-.82-1.26.45-.8,1-.06,1.44.17a24.32,24.32,0,0,0,11.43,2.62c5.15,0,10.34-.33,15.34,1.19a2.4,2.4,0,0,0,3-1.23c.65-2.53,2.48-1.54,3.86-1.29a42.81,42.81,0,0,0,5.29.4,28.77,28.77,0,0,1,8.2,1.28c2.76,1,4.25-.09,4.21-2.88,0-.69-1-1.59.16-2.09.84-.37,1.62.24,2.35.61s1.59.91,2.38,1.37c1.22.7,2.32,1.43,3.92.52a1.55,1.55,0,0,1,2.3,1.14c.33,1.26.53,2.55.78,3.84a.91.91,0,0,0,.72-1.18c-.31-2.5.83-2.89,3.29-2.42a26.51,26.51,0,0,0,7.78.58c11.39-1.23,22.74-.45,34.1.23,3.88.23,7.78.14,11.38-1.39,1.57-.67,2.89-1.07,4.42-.09.44.27,1.16.67,1.64.2s-.08-1.18-.42-1.65a11.09,11.09,0,0,1-1.59-3.62l4,.17c.07.12.12.25.2.37a2.23,2.23,0,0,0,3.1.69c.52-.26.7-.56.72-.88l2,.09a19.44,19.44,0,0,1-.41,2.94c-.1.48-.26,1.22.52,1.4.53.12.89-.38,1.19-.75a9.67,9.67,0,0,0,1.88-3.46l2.57.09c0,.5-.07,1-.1,1.49,0,.72-.32,1.74.94,1.87a1.86,1.86,0,0,0,2-1.46c.21-.59.36-1.2.55-1.8,1.95,0,3.9.12,5.86.08a12.09,12.09,0,0,1,.26,2c.07,1.17.21,2.51,1.67,2.49s.69-1.47.9-2.28.28-1.65.52-2.42c.57-.06,1.13-.14,1.69-.24,1.2-.21,3.33-.53,3.16,1.3-.35,3.69,1.64,3.6,4.37,2.92a4.85,4.85,0,0,1,1,0c4.6-.12,9.06.84,13.51,1.68,2.41.45,4.19,0,5.14-2.2a1.21,1.21,0,0,1,1.54-.81c3.49.52,7,.93,10.48,1.57,1.54.28,2.3.11,2.2-1.48-.11-1.85.89-1.45,2-.89.62.3,1.24.59,1.87.87a.66.66,0,0,0,.13.78c.43.5,1,.39,1.63.25.19,0,.35-.11.53-.15a22.86,22.86,0,0,0,3.42.88,115.73,115.73,0,0,0,18.13,1.43c2,0,3.45-.07,3.57-2.4a2.32,2.32,0,0,1,1.87-2.29c1.34-.29,2.07.62,2.64,1.47,1,1.47,1.92,2.25,3.41.5a1.13,1.13,0,0,1,1.54-.4c.55.37.4,1,.38,1.54,0,1.18-1.17,1.9-1.52,3h0a10.8,10.8,0,0,0,4.47-.67c2.62-.89,5.18-1.31,7.75.31,1.33.84,2,.17,2-1.23v-4.57a26.22,26.22,0,0,1,5.26,7.45c.24.49.15,1.5,1.15,1.23.75-.2.7-1,.7-1.64,0-1.34,0-2.68,0-4,0-.87.16-1.44.92-1.31,0,.35-.1.71-.19,1.12,0,.18.13.4.2.6a8.61,8.61,0,0,0,2.06-1,23.87,23.87,0,0,0,3.52.5c1.82.17,4.2.06,5.22,1.45,2.78,3.79,5.07,1.3,7.52-.11a10.15,10.15,0,0,0,1.58-1.18c1.33-1.17,2.43-.73,3.46.37a3.84,3.84,0,0,1,1,2.38c.12,1.75,1,2,2.51,1.39a12.81,12.81,0,0,1,2-.45c10-2,20-3.65,29.83.4,1,.42,1.39-.06,1.72-.77,1.11-2.36,3.28-2.94,5.78-3.11,3.68-.25,7.23.47,10.81,1,1.53.24,3.1,1.06,2.45-1.63-.2-.86.83-1.64,1.62-2.49,1.4,2,3.83,2.89,5.3,4.71.7.87,1.24.92,2.29.49a13.82,13.82,0,0,1,6.88-.87c3.93.43,7.79,1.55,11.81,1.16,1.14-.12,2.85.31,3.12-.9s-1.59-1-2.43-1.5c-.07,0-.17,0-.24-.08-.58-.26-1.15-.69-.82-1.26.45-.8,1-.06,1.44.17a24.32,24.32,0,0,0,11.43,2.62c5.15,0,10.34-.33,15.34,1.19a2.4,2.4,0,0,0,3-1.23c.65-2.53,2.48-1.54,3.86-1.29a43,43,0,0,0,5.29.4,28.77,28.77,0,0,1,8.2,1.28c2.76,1,4.25-.09,4.21-2.88,0-.69-1-1.59.16-2.09.84-.37,1.62.24,2.36.61s1.58.91,2.37,1.37c1.22.7,2.32,1.43,3.93.52a1.55,1.55,0,0,1,2.29,1.14c.33,1.26.53,2.55.78,3.84a.92.92,0,0,0,.73-1.18c-.32-2.5.82-2.89,3.28-2.42a26.51,26.51,0,0,0,7.78.58c11.39-1.23,22.74-.45,34.1.23,3.89.23,7.78.14,11.38-1.39,1.57-.67,2.88-1.07,4.42-.09.44.27,1.16.67,1.64.2s-.08-1.18-.42-1.65a15.57,15.57,0,0,1-2.13-5.93c-.19-.85-.38-2.12.92-2.42s1.86.86,2.31,1.78a35.1,35.1,0,0,0,1.53,3.49,2.23,2.23,0,0,0,3.1.69c1.23-.61.58-1.45.26-2.24s-.62-1.47-.88-2.22a1.38,1.38,0,0,1,.34-1.74c.78-.55,1.46,0,2.06.4a2.43,2.43,0,0,1,1,2.31,24.25,24.25,0,0,1-.47,5.64c-.1.48-.26,1.22.52,1.4.53.12.89-.38,1.2-.75,2.28-2.75,2.65-5.89,2.1-9.2-.18-1.09-.43-2.17-.71-3.56,2.52.79,3.51,2.12,3.43,4.06-.09,2.28-.36,4.55-.48,6.82,0,.72-.32,1.74.94,1.87a1.86,1.86,0,0,0,2-1.46c.24-.68.39-1.37.62-2a2.49,2.49,0,0,1,2-1.64c2.84-.71,3.85.21,4.08,4,.07,1.17.21,2.51,1.67,2.49s.69-1.47.9-2.28c.4-1.5.33-3.76,2.13-3.93,2.48-.23,5.31-1.32,7.61,1,1.46,1.45,3.21,2.65,4.92,4a7.08,7.08,0,0,1,.9-3.76c.54-.85,1.72-1.53.94-2.68s-1.94-.41-3-.28-2,.21-1.6-1.26,2.4-2.4,4.63-1.77c1.57.45,4.1.33,2.7,3.16-.62,1.26-.2,2.76,1.44,2.49,5-.84,9.5.81,14.08,2.17.93.27,2,.93,2.84.06s.57-1.93.21-2.91c-.48-1.3-1-2.58-1.75-4.28,4.6,1.69,8.61,1.29,12.5-1.58a3,3,0,0,1-2,3.37,12.52,12.52,0,0,0-3,1.65c-.8.68-1.36,1.8-.43,2.74s1.87.14,2.7-.36c1.19-.72,1.54-2.05,2.38-3,.48-.56,1-1.56,2-1s.48,1.4.08,2.09c-.72,1.25-1.51,2.46-2.27,3.69-.3.46-.84.9-.34,1.47s1,.39,1.63.25a14.09,14.09,0,0,0,9.8-7.56c.31-.6.3-1.66,1.26-1.59,3,.22,6-1.19,9-.16.6.21,1.55.13,1.4,1-.12.71-1,.4-1.51.49a10.43,10.43,0,0,0-7.15,4.08c-.62.86-1.1,1.9-.21,2.84s2,.46,3,0c1.53-.61,2.12-2,3.22-3,.56-.48,1.1-1.57,2-.77,3,2.52,6.65,1.8,10.15,2,1.6.08,2.12-.59,2-2a5,5,0,0,1,1.8-4.7c2-1.66,3.77-3.51,4-6.32,1.11.84.72,1.77.77,2.58a3.62,3.62,0,0,0,1.65,3,1.2,1.2,0,0,0,.93.09c.4-.14.29-.52.12-.8-1.1-1.8.53-1.23,1.36-1.4,1.57-.33,1.78,1.68,2.69,1.61,3.76-.24,2.25,1.41,1.39,2.93s-.44,2.43,1.65,2.57c.67,0,1.35,0,2,0,4.44,0,5.41,1.1,4.58,5.17,0,.18.13.4.2.6,3.73-1.3,4.2-3.14,1.5-5.76-1.17-1.14-2.39-2.23-3.6-3.34a1.85,1.85,0,0,1-.37-2.76c.89-1.06,1.89-.31,2.65.26a5.78,5.78,0,0,0,3.85,1.56,1.49,1.49,0,0,1,1.53,1,3.92,3.92,0,0,0,2.48,1.9c4,1.53,8.27,1.42,12.5,1.28a1.52,1.52,0,0,0,1.26-.67c1.4-2-.32-5.81-2.87-6.39M520.11,1192.05l15.45-1.41c-2.63,4.18-7.11,4.9-15.45,1.41m54-8.7c.4-1.47.7-2.56,1.13-4.16,5.07,5.9,7.43-.11,11.1-2.38,3.62,5,6.3,0,10-1.86-3.74,6.73-15.08,10.76-22.21,8.4M3.39,1276.44c-1.78-.55-4.31,1.34-4.94-.55-1.89-3.15,3.16-5,5.69-3.15,1.26,1.89-1.27,2.52-2.75,2.94.9.37,1.39.55,2,.76m69-1.47c.19-.06-3.49.64.41-.33l-.41.33m481.73,5.54c-5,1.69-5,8-10,9.25-1.9.63-6.32-.63-5.05-3.15,3.15-5,10.1-4.41,14.41-7.51.95-.66,1.6-.89.68,1.41m87.22-112.39c.86.35,1.53.4,1.82.77,3.83,4.73,7.78,3.48,11.3.06l6.48,4.34c-3.32,4.2-3.27,4.59.8,7.61l5.64-4-5-6.78,11,1.33c0,.58-.06,1.17-.08,1.76l-4.67,1.17c1.22,3.93,2.64,7.85,3.57,11.89.25,1.08-1,2.5-1.86,4.42l-3.28-3.86c-.36,1.42-.7,2.79-1.55,6.16-4.43-3.49-7.89-6.33-11.46-9a25.88,25.88,0,0,0-5.84-3.61c-4.12-1.62-7.89-7.55-6.88-12.24m35,70.33c-.88-4.5-1.84-9-2.62-13.49-1.35-7.89-6.44-12.55-12.63-17.24-5.75-4.34-11.24-8.4-17.78-11.72-4.21-2.13-5.82-9.36-8.6-14.31l1.46-1.11,2.8,3.48c.78-1.74,1.36-3.06,1.87-4.18,2,.51,4.06,1,6.07,1.51,2.89.74,4.55,2.36,6.58,4.95,5.2,6.65,12.11,11.78,21.4,13.2.91,12.78,1.83,25.77,2.76,38.77l-1.31.14m18.82-40.34c-3.74,1.86-6.13-.35-7.94-2.84l10.38-5.07c2.41,3.86.71,6.34-2.44,7.91m31.58-14.88c0-.12,0,.11,0,.14-.66.33-1.34.62-2.3,1.05l3,4.34-12.12-4.24c0,.26,0,.53-.07.79l-7.37-6.3-2.47-6.74c10.28-1.82,15.21,5.69,21.36,11m-26.9-11.62-14.94,5.32c1.36-5.32,10.19-8.32,14.94-5.32m-18,14.55c6.73-.89,5.91-8.15,11.6-10.42,6.22-2.49,10.75-2.86,14.42,3.25l-.13-.11c1.48,2.13,3.07,4.2,4.41,6.42a39.19,39.19,0,0,1,2.08,4.73c-1.67-.28-3.35-.51-5-.87a3.83,3.83,0,0,1-1.45-.89c-4.77-3.84-10.19-2.44-14.45-.12-4.42,2.41-7.16,1.16-11.48-2"/><path d="M1337,1317.92a17.32,17.32,0,1,1-17.32-17.35,17.34,17.34,0,0,1,17.32,17.35"/><path d="M1486.44,1317.92a17.31,17.31,0,1,1-17.31-17.35,17.33,17.33,0,0,1,17.31,17.35"/><path d="M1495.68,1302.86a15,15,0,1,1-15-15.07,15,15,0,0,1,15,15.07"/><path d="M1503.05,1292.05A6.06,6.06,0,1,1,1497,1286a6.06,6.06,0,0,1,6.06,6.07"/><path d="M1323.26,1306.1a14,14,0,1,1-14-14.06,14,14,0,0,1,14,14.06"/><path d="M1311.52,1306.1a14,14,0,1,1-14-14.06,14,14,0,0,1,14,14.06"/><polygon points="225.86 1254.18 226.5 1188.88 232.9 1188.88 232.9 1254.18 225.86 1254.18"/><polygon points="124.94 1236.3 124.94 1256.13 131.4 1256.01 131.4 1231.19 124.94 1231.19 124.94 1236.3"/><polygon points="18.82 1236.3 18.82 1256.13 25.28 1256.01 25.28 1231.19 18.82 1231.19 18.82 1236.3"/><path class="cls-9" d="M451.74,1323.61c-1.3-.58-3.27.25-3.85-1.83l0-1.26v-12.58c0-.42,0-.84,0-1.26s0-.84,0-1.26c.16-.94-.11-1.48-1.18-1.28l-3.77,0c-4-1.21-8-1.87-11.77-4-4.1-2.34-12.29.85-15.7,6.29-2.05,3.26-4.33,3.86-7.69,3.76-6.44-.17-12.89-.05-19.6-.05.47,3.72,2.49,4.57,5.26,4.17a37.67,37.67,0,0,1,18.79,2.18,4.19,4.19,0,0,0,5.05-1.31c8.28-10.64,8.88-10.73,21.63-5.84q7.62,23.58-14.72,21c-8.87-11.68-21.59-5.75-32.71-7.1-2.11-.26-2.59,1.77-3.65,3-5.83,6.53-13.82,6.61-19.45-.14a8.27,8.27,0,0,0-5.45-3.4c2.83-5.14,5-10.22,5.46-15.85-.61-7.61-2.8-14.61-8.16-20.29a28.27,28.27,0,0,0-40.53-.79c-1,1-1.92,2.16-2.87,3.25-2.59,3-4.8,4-6.94-.61-.94-2-2.9-3.59-4.39-5.37-1.46-2.31-4.46-1.13-6.22-2.74-2.55-2.33-5.64-2.44-8.82-2.15a11.42,11.42,0,0,0-6.4,0c-4.66.25-9.12,1.12-12.68,4.49a25.36,25.36,0,0,0-11.82,15.7c-5.64-13.71-14.65-21.6-29.62-20.57-2.64-.19-5.25-.16-7.6,1.32l-6.39,3c-8.47,5.22-12.37,13.14-13.46,22.73-.22,2,.19,3.85-3.15,4.11-10.32.79-10.67,1.58-7,11.78-4.34,0-8.5.21-12.63-.06-5.21-.34-9.51-7.53-6.09-12.12,2.91-3.9-.08-5.42-.48-8q0-15.26,0-30.5c0-2.27-.28-4.59.83-6.73,13.64.12,15.65-2.45,13.25-16.22-.56-3.22-2.55-3.36-4.95-3.43-4.33-.12-9.21,1.37-11.17-4.73-.72-2.22-3.28-1.46-5-1.48-2.52,0-5.13-.11-4.1-3.49.74-2.43-1.66-6.82,4.2-6.7,14.47.29,28.95.24,43.42,0,3.87-.06,5.52,1,4.85,4.86s1.23,4.38,4.58,4.34c16.15-.15,32.3,0,48.45-.1,3,0,5.39.4,7.68,3,3.8,4.24,27.11,2.69,30.73-1.66,1.21-1.44,2.32-3,2.07-5.08-.36-2.93,1.15-3.43,3.69-3.48,2.77,0,3.87.53,4.16,3.72.5,5.57,4.38,8.48,9.83,8.52,21.39.13,42.79,0,64.18.1,2.85,0,5.26-.9,6.16-3.33.71-1.9,2.07-5.09-2.21-5.61-.9-.11-1.12-1-.59-1.95,1.32-2.23,3.66-1.63,5.63-2.07,3.35.12,6.73,0,10,.44,3,.4,3.22,1.5.86,3.9-1.6,1.62-1.27,3.63-.69,5.19a4.91,4.91,0,0,0,4.77,3.39c3.36,0,6.77.41,10.06-.08,5.05-.75,7,1.34,7.74,6.09a99.17,99.17,0,0,1,0,32.48c-.35,2.13-1.67,3.64-2.6,5.53,2.76,1.16,5.49.41,8.14.61,2.14.17,4.58-.79,4.84,3,.22,3.2,3.41,2,5.06,1.77,9-1.49,14.62,2.32,19.24,9.9,4,6.55,9.46,12.2,14.28,18.26,2.72,3.22,2.51,5.07-2.25,4.77l-17.67,0-8.86-.05M206.61,1263c2.16-.74,2.87-2.25,2.89-4.28a69.59,69.59,0,0,1,.07-7.51c.73-6.15-1.89-8-7.89-7.73-9.44.42-9.46.08-9.45,9.85,0,9.36,5.19,12.81,14.38,9.67"/><path class="cls-9" d="M19.56,1247.89l-1.24,1c-1.25,1.9-2.88,2.87-5.21,2.17l-15.11,0-2.44.4.05-.06-.27,3.7q0,22,0,44c.1.92.49,2-1.14,1.91l-10.16.58c0,4.35,1.51,9.64-6.15,8.79a2.23,2.23,0,0,0-2.32,3c.67,2.16,1.56,4.46,4.32,4.81,2.07.26,3.21-.49,2.76-2.83-.26-1.31-.14-2.61,1.67-2.59,4.19,0,8.38,0,12.56.28,1.5.09,1,1.44.69,2.42l.38,7.57,0,.08H9.11c-1.7-6.55-1.21-12.44,3-17.6a17.16,17.16,0,0,1,11.14-6.26c9.4-1.39,17.39,5.17,19.08,15.42l16.18.7,2.36-.24c.73-1.06.49-3.3,2.51-2.77,1.57.41.71,2,.64,3.17-.05.83-.18,1.65-.27,2.47q2,4.29,4.07,8.59a37.05,37.05,0,0,0,4.21,2.54c5,2.25,10,2.44,14.71-.83a13.69,13.69,0,0,0,6.15-13.46c-.83-7.75-5.87-11.5-13-13.17l-7.6,1.06-5.42,4.72c-1,.84-1,3.89-3,2.34-1.68-1.25.51-2.62,1.27-3.84a10.77,10.77,0,0,1,4.78-4.3c3-2.54,6.49-2.55,10.1-2.16,6.51.1,11.77,3.29,13.53,9.1,1.92,6.39,5.55,7.23,11,6.52a22.77,22.77,0,0,1,5,0c3.29.3,5.06-.39,6.08-4.25,2-7.37,8.25-11.36,15.9-11.32,5.36-.47,9.57,1.65,12.94,5.69a10.65,10.65,0,0,1,4.32,11.57c-1.93,7.13,1.55,7,6.42,6.5a29.37,29.37,0,0,1,4.4,0c2,.11,3.36-.51,3-2.78-.74-5.25,1-10.13,2.16-15.09-.12-2.47-.28-5-.36-7.43-.12-3.29,1.09-8.4-.53-9.53-4.65-3.28-3-6.87-2.42-10.7a7.59,7.59,0,0,1-.22-5.23c-1.45-2.42,2.3-6.58-2.57-7.83-4.23-1.09-5.84-4.14-6.7-8.09-1.59-7.34-4.73-9.71-12.29-9.71-24.34,0-48.69,0-73,0-12.37,0-24.74-.25-37.1-.38-3.26,1.06-6.85-.35-10,1.35"/><g class="cls-10"><g class="cls-11"><path class="cls-12" d="M398.85,1226.09c2.52.75,5.23,1.22,6.74-1.44,1.64-2.86.23-6.4-1.33-8.2-6.19-7.17-2.68-12.86,1.85-18.65,2.38-3,2.72-7.22.42-9.19-3.86-3.32-3.73-7.59-5-11.57-3.13-9.65-10.06-14.24-19.85-12.85-2.55.36-3.64-.37-4.69-2.74-9-20.16-34.6-22.8-46.76-8.43-3.7,4.38-8.28,1.08-12.32,1-3.51,0-2-3.94-2.21-6.19-1.54-16.6-20.39-28.75-36.8-23.21-4.34,1.47-6.88,2.83-8.51-3.1-1.07-3.89-5.28-5.73-8.93-7.45l-6.33,0c-2.4-.09-5,.5-6.24,2.28-4.52,6.27-11.46,9.06-17.64,13-7.68,9.55-8.72,20.21-2.73,28,6.85,9,16.92,11.08,28.64,5.71,2.59-1.19,3.34-.75,4.65,1.69,5.45,10.16,13.93,15.86,25.71,16.07,2.32,0,4,.33,4.2,3.28,1.55,22.32,29.16,32.89,46.38,17.6,1.71-1.52,3.42-2.33,5.68-1.66,7.49,2.22,14.47.59,21.16-2.92,2.38-1.25,3.87-1.55,5.29,1.6a13.86,13.86,0,0,0,11.56,8.53c2.43.25,3,1.43,3.22,3.64,1,8.12,4.54,10.58,12.59,9l.46-.28-.51.22c0,2.19.05,4.35,1.32,6.26"/></g></g><path class="cls-9" d="M25.2,1330.58c8.61.05,14.62-5.88,14.56-14.35a14.5,14.5,0,0,0-14.22-14.47,15.06,15.06,0,0,0-14.79,14.75,14.25,14.25,0,0,0,14.45,14.07"/><path class="cls-13" d="M397.53,1219.83l.51-.22-.46.28Z"/><path class="cls-3" d="M1916.08,1176.52s-14.46,1.91-23.16,14.57,14.08,18.17,12.95,30-43,14.55-56.43,24.28c-18.72,13.59-15.59,68.35-15.59,68.35l-41.33,2.09s9.88-48,18.19-64c9.37-18.14,77.87-23.7,79.73-31.6s-9.94-20.35-5.59-29.11,31.23-14.57,31.23-14.57"/><path class="cls-9" d="M290.43,1281.45h-6.32c-4.26,1.61-8.83,2.5-12.52,5.41-5,4.57-7.63,10.52-9.4,16.91-4.67-.8-7-3.47-8.81-8-4.32-11-13.73-14.32-24.75-14.4l-6.25,1.28-6.35,3.83c-15.6,13.12-10.79,36.36,6.49,42.88a24.62,24.62,0,0,0,32.68-16.67c.39-1.4.8-2.79,1.34-4.64,3.25,1.38,6.08,2.28,7.53,6.25,4,11.07,13,17,23.89,16.71,11.31-.34,20.19-7.36,23.79-18.89.3-.94-.09-2.11,1.64-3.15,5.32,16.15,15.5,25.71,33.39,20.77,11-3,16.43-11.58,17.12-23-.54-9.74-7.27-20.5-13.88-22.78-15.37-5.32-22.85-1-32,8.85-.32,1-.36,2.17-1,2.81-2.15,2.16.14,7.39-3.63,7.33-2.95,0-3.24-4.86-4.38-7.41-1.28-2.88-3.4-5-4.72-7.72l-7.87-4.86-6-1.51"/><path class="cls-9" d="M142.87,1306.81c-3.24-2.87-6.83-5-11.29-5.27-12.83,3.07-18.23,13.45-11.92,22.87,3.65,5.44,14,8.67,19,5.91,7.63-4.24,9.49-14.62,4.21-23.51"/><path class="cls-9" d="M168.13,1297.69c-2.09,2.35-.11,5.18-.9,7.68.08,4.35.16,8.69.27,13,0,1.24,0,2.83,1.63,2.88,1.86,0,1.35-1.71,1.39-2.8.19-6,.3-12,.43-18-.29-1.57-.94-2.8-2.82-2.75"/><path class="cls-9" d="M264,1323l-4.57-9.38-4.62,9.38Z"/><path class="cls-9" d="M208,1322.81c-1.64-3.14-3.08-5.88-5.11-9.73-.5,4-2.53,7.09-1.15,9.78.76,1.47,4.13.71,6.26,0"/><path class="cls-14" d="M1935.63,1325.26l-.2,0c-3.46,0-7.1,0-10.12.71a37.31,37.31,0,0,1-6.17,1.12c-6.66.52-5.25.8-7.2-1.87-.32-.43-.9-1,0-1.28a8.71,8.71,0,0,1,3.64,0,19,19,0,0,1,5.68,1.7,2.42,2.42,0,0,0,2.69-.06,11.82,11.82,0,0,1,5.19-1.38c2.3-.2,4.58-.46,6.84-.74,1.16-.14,1.8-.54,1.9-1,.16-.69-1.23.09-1.55-.25-.14-.16-.57-.26-.8-.4a5.08,5.08,0,0,0-4.47-.27,19.22,19.22,0,0,1-8.35.39,11.73,11.73,0,0,1,1.71-.74c3.25-.91,5.29-2.18,6.52-3.69a106.73,106.73,0,0,0,19.22,1.08c-.16.87,1.19,1.54,1.75,2.48a9.19,9.19,0,0,0,1.79-2.5,23.09,23.09,0,0,1,4.67-.29c5.63-.37,10.72-1.4,16.07-2.11,4.56-.6,9.12-1.23,13.36-2.18.09,1.34,1.65,2.46,3.24,3.69,1.44-.81,1.79-1.73,2.82-2.5a3.51,3.51,0,0,1,2.22-1.08c1.32-.08,1.29.62,1.9,1,2.09,1.16,4.14,2.34,6.47,3.67a3.67,3.67,0,0,1,1.58-3.5,2.61,2.61,0,0,1,3.53,0,9.38,9.38,0,0,1,3.42,4.44,11.93,11.93,0,0,0,2.92-2.09,9.52,9.52,0,0,1,2.52-1.69,11,11,0,0,1,7.69,0,9.62,9.62,0,0,1,1.16.55c3.28,1.88,3.48,1.9,7.31.12a26.65,26.65,0,0,0,2.6-1.55c1.24,0,1.66.29,2,.77A40.49,40.49,0,0,1,2043,1323c1,2.66,2.39,5.41.33,8-1.54,1.93-1.71,3.42,1.88,4.91,1.44.59,1.19,1.33-.82,1.7-1.31.25-1.15.51-.52.87a7.51,7.51,0,0,1,2.82,2.79c3,4.72,2.27,9.51,1.35,14.29-.16.85.1,1.8-1.29,2.64-2.17-1.19-.51-2.39-.28-3.57a21.38,21.38,0,0,0-4,.76c-6.89,1.23-14.27,1.36-21.55,1.65a179.56,179.56,0,0,0-19,1.64c-2.88.43-8.13-.34-9.56-1.45a1.41,1.41,0,0,0-1.35-.27c-2,.44-4.22.48-6.29.78-1.26.18-2.4.39-1.69,1.13.42.43-.26.71-1.25.69-1.72,0-4.09.13-4.88-.47-1-.75,1.39-.93,2.57-1.26a1.29,1.29,0,0,0,.21-.06c.35-.14.9-.26.68-.5s-.86-.21-1.32-.19a60.41,60.41,0,0,0-7,.52c-1.19.21-2.39.51-2.52,1.08-.17.81-1,.51-1.91.27a15,15,0,0,0-5.84-.23c-1.37.21-2.77.39-4.48.63.48-.64.7-1.12.25-1.6a1.28,1.28,0,0,0-1-.42,1.12,1.12,0,0,0-1,.4,3.31,3.31,0,0,0-.27.72c-.13.28.4.74-.59.8a2,2,0,0,1-1.76-.66c-.72-1.13-1.48-.44-2.25,0a8.06,8.06,0,0,0-.72.43,5.44,5.44,0,0,1-3.29.58c-1.54-.11-.89-.65-1.05-1-.09-.19.11-.47-.57-.51s-.9.2-.88.41c.11,1.16-1.69,1-3.41.85-4.4-.34-8.87-.46-13.33-.54-11.84-.2-23.64.28-35.47.4-3.7,0-7.43.13-11.13-.17-1.2-.09-3.33-.23-3.16.58.34,1.64-1.64,1.59-4.37,1.29-.32,0-.68,0-1,0-4.6-.06-9,.37-13.51.74-2.4.2-4.19,0-5.13-1-.32-.34-.77-.42-1.54-.37-3.5.24-7,.42-10.48.7-1.54.13-2.31,0-2.21-.66s-.89-.64-2-.39a54.05,54.05,0,0,1-7.57,1.17c-6,.47-12,.59-18.13.64-2,0-3.45,0-3.57-1.07,0-.45-.6-.9-1.87-1a3.65,3.65,0,0,0-2.64.65,2.92,2.92,0,0,1-3.41.23,2.05,2.05,0,0,0-1.54-.18c-.56.16-.4.44-.38.68,0,.53,1.17.85,1.51,1.31h0a24.22,24.22,0,0,1-4.47-.3,18.08,18.08,0,0,0-7.75.14c-1.33.37-2,.07-2-.55s0-1.22,0-2a18.54,18.54,0,0,0-5.26,3.31c-.25.21-.15.67-1.15.54-.75-.09-.7-.44-.7-.72,0-.6,0-1.2,0-1.79s-.24-.77-1.6-.48a30.68,30.68,0,0,1-4.9.44c-1.83.08-4.2,0-5.23.65-2.77,1.68-5.06.57-7.52,0a14.42,14.42,0,0,1-1.57-.53,4.12,4.12,0,0,0-3.47.17c-.64.3-1,.68-1,1-.12.78-1,.87-2.51.62-.63-.1-1.31-.14-2-.2-10-.89-20-1.62-29.84.18-1,.19-1.38,0-1.71-.34-1.11-1-3.28-1.31-5.78-1.38a107.18,107.18,0,0,0-10.81.45c-1.54.11-3.1.47-2.46-.72.21-.38-.82-.73-1.62-1.11-1.4.9-3.82,1.29-5.29,2.1a3.05,3.05,0,0,1-2.3.21,29.58,29.58,0,0,0-6.88-.38c-3.92.19-7.78.69-11.81.51-1.13-.05-2.84.14-3.11-.4s1.59-.43,2.43-.66l.24,0c.58-.11,1.14-.31.82-.56s-1,0-1.44.08a51,51,0,0,1-11.44,1.16,111.36,111.36,0,0,0-15.33.53,3.8,3.8,0,0,1-3-.55c-.66-1.12-2.48-.68-3.86-.57-1.77.14-3.53.13-5.3.18a61.09,61.09,0,0,0-8.19.57c-2.77.44-4.26,0-4.22-1.29,0-.3,1-.7-.15-.92a5.59,5.59,0,0,0-2.36.27c-.81.18-1.58.4-2.37.6a7.07,7.07,0,0,1-3.93.24,2.2,2.2,0,0,0-2.29.51,17.32,17.32,0,0,0-.79,1.7c-.77-.09-.77-.33-.72-.52.31-1.11-.82-1.29-3.28-1.08a59.45,59.45,0,0,1-7.78.26c-11.39-.55-22.74-.2-34.1.1a54.08,54.08,0,0,1-11.39-.62,9.06,9.06,0,0,0-4.42,0,2.66,2.66,0,0,1-1.63.09c-.63-.27.08-.52.42-.73a5.45,5.45,0,0,0,2.13-2.64c.19-.37.38-.93-.92-1.07a2.49,2.49,0,0,0-2.31.79,15.93,15.93,0,0,1-1.53,1.55,4.15,4.15,0,0,1-3.1.31c-1.23-.27-.58-.65-.26-1s.61-.65.88-1,.27-.58-.35-.78a3.44,3.44,0,0,0-2.06.18c-.86.25-1,.63-1,1a5,5,0,0,0,.47,2.5c.1.22.25.55-.53.62a1.91,1.91,0,0,1-1.19-.33c-2.28-1.22-2.65-2.61-2.11-4.08.18-.49.44-1,.72-1.59-2.52.36-3.51,1-3.44,1.81.1,1,.37,2,.49,3,0,.32.32.77-.94.83a2.28,2.28,0,0,1-2-.65c-.24-.3-.39-.61-.62-.91a2.87,2.87,0,0,0-2-.73c-2.85-.32-3.86.1-4.08,1.76-.08.52-.21,1.11-1.68,1.1s-.68-.65-.89-1c-.4-.67-.33-1.67-2.13-1.74-2.48-.11-5.31-.59-7.61.43-1.46.64-3.21,1.18-4.92,1.79a2,2,0,0,0-.9-1.67c-.54-.37-1.72-.68-.94-1.19s1.94-.18,3-.12,2,.09,1.6-.56-2.41-1.07-4.63-.79c-1.57.2-4.1.15-2.7,1.41.62.56.2,1.22-1.44,1.1-5-.37-9.5.36-14.08,1a5.31,5.31,0,0,1-2.85,0c-.85-.37-.56-.86-.2-1.29s1-1.15,1.75-1.9a25.63,25.63,0,0,1-12.5-.71c-.14.87.67,1.24,2,1.5a22.42,22.42,0,0,1,3,.73c.8.31,1.35.81.43,1.22a3.9,3.9,0,0,1-2.7-.16c-1.2-.32-1.55-.91-2.38-1.34a2.37,2.37,0,0,0-2-.45c-1,.24-.48.63-.09.93.73.56,1.51,1.1,2.28,1.64.29.2.84.4.34.65a3,3,0,0,1-1.64.11c-4.54-.48-7.78-1.6-9.79-3.35-.31-.27-.3-.74-1.26-.71-3,.1-6-.53-9-.07-.6.09-1.55.06-1.4.44s1,.18,1.51.22a16.32,16.32,0,0,1,7.15,1.81c.62.38,1.1.85.2,1.26a5,5,0,0,1-3,0,13.45,13.45,0,0,1-3.21-1.31c-.56-.22-1.1-.7-2-.35-3,1.13-6.66.8-10.15.88-1.6,0-2.12-.26-2-.87.18-.81-.25-1.53-1.81-2.09-2-.74-3.76-1.56-4-2.81-1.12.37-.72.79-.78,1.15-.08.56-.51,1-1.64,1.35a2.62,2.62,0,0,1-.93,0c-.4-.07-.3-.23-.12-.36,1.1-.8-.53-.54-1.37-.62-1.56-.15-1.78.74-2.68.72-3.76-.11-2.25.62-1.4,1.29s.44,1.09-1.64,1.15c-.67,0-1.35,0-2,0-4.44,0-5.41.49-4.59,2.29,0,.08-.12.18-.19.27-3.73-.58-4.2-1.4-1.51-2.56,1.18-.5,2.4-1,3.6-1.48.91-.37,1.16-.82.38-1.23a3.39,3.39,0,0,0-2.66.12,10.45,10.45,0,0,1-3.84.69,2,2,0,0,0-1.53.45,5.08,5.08,0,0,1-2.49.85,69.76,69.76,0,0,1-12.49.57,2.53,2.53,0,0,1-1.27-.3c-1.39-.9.33-2.58,2.88-2.84,2.19-.22,4.38.13,6.54,0,1.31-.08,3.06.48,3.73,0s-1.69-.5-2.12-1c-.24-.26-.72-.5-.37-.79a1.36,1.36,0,0,1,1-.16c2.12.21,4.14,1.27,4,2.23-.08.49.48.54,1.32.54a7.92,7.92,0,0,0,4.72-1.17,5.88,5.88,0,0,1,3.91-1.34c.93,0,1.67,0,1.36.59-.66,1.2-.61,1.21,2.26.92.9-.09,1.82-.18,2.67-.32s1.51-.34,1.24-.7-1.2-.15-1.87-.07-1.15.28-1.44-.1.18-.49.78-.59a35.06,35.06,0,0,1,4.19-.38,4.69,4.69,0,0,0,2.42-.46c.82-.66-1.87-2.44-3.69-2.47-1.18,0-2.37,0-3.55,0-.83,0-1.76-.16-1.66-.63s1-.38,1.77-.38c1.1,0,2.21,0,3.3,0,.75,0,1.46-.1,1.37-.47-.21-.88,1.09-1.61,1.41-2.42.75-1.93-.25-2.31-3.92-2.16-2.4.1-4.16-.19-4.28-1.43-3.09,1.12-6.41,1.93-8.85,3.33-1-1-.29-1.53,1.12-2,.85-.29,1.82-.51,2.73-.77,2.22-.63,2.23-1.23-.11-1.8a38.65,38.65,0,0,0-5.81-.7c-2.37-.19-4.91-.13-7-.8-.9-.29-1.94-.62-1.37-1.1s1.65-.14,2.53,0a99.34,99.34,0,0,1,18.75,3.84c2.67.76,5.78.48,7.44-.69a9.82,9.82,0,0,0,1.49-1.33,9,9,0,0,1,2.24-1.52c.58-.31,2.35-.28,1.94-.79s-2-.19-3-.34c-.12,0-.18-.1-.28-.16,1.15-.81,3.27-1.06,5.13-1.45,1.71-.36,3.38-.8,3.84-1.58s1.28-.81,2.7-.76c2.46.1,4.83,0,6.47-.89a20.5,20.5,0,0,0,3.29-2.11,16,16,0,0,1,8.06-3.47c1.1-.18.93-.4.52-.72-1.08-.83-2.65-.53-4.2-.33-.59.08-1.4.31-1.67-.1s.65-.46,1.27-.53a41.15,41.15,0,0,1,4.76-.27c2.83,0,3.34-.28,3.43-1.44.11-1.56-.51-3.15.94-4.66.42,0,.64.42,1.18.11a5.46,5.46,0,0,0,.82-.65c1.57-1.25,2.94-1.44,5.84-.67a28,28,0,0,0,7.83,1,9.63,9.63,0,0,0,5.08-1.14,26,26,0,0,1,4.08-2.53c1.23-.53,2-.66,2.84.15a33.35,33.35,0,0,0,2.76,2.13c1.13.85,2.35,1,4.21.38,2.56-.85,4.56-1.88,5.07-3.29.11-.31.12-.71.82-.84a3.07,3.07,0,0,1,2,.5c2.18.84,3.27,2,5.17,3.11.59-.77,1.15-1.38,1.55-2s1.36-1.26,3.26-1.21,3.16.46,3.61,1.25c.21.37.37.75.64,1.31a7.84,7.84,0,0,0,1.75-3,9,9,0,0,1,5.19-4.46,3.41,3.41,0,0,1,2.91,0,5.22,5.22,0,0,1,3.23,3.07,17.89,17.89,0,0,0,5-2.54c1.08-.72,2-1.47,3-2.2.28-.21.38-.54,1-.55.84,0,.89.37,1.17.6a37.73,37.73,0,0,0,8.17,5.66c.43.21.91.4,1.59.7,1.2-2.34,4.13-4.12,8.14-5.62a3,3,0,0,1,1.7-.36c.82.11.56.46.62.73.36,1.6.68,3.2,1.12,4.79a1.16,1.16,0,0,0,1.12,1c1.1.19,1.54-.31,2.19-.55a9.89,9.89,0,0,0,3.34-2c.66-.58,1.39-.57,2.5-.17a11.87,11.87,0,0,1,3.69,2.37,2.57,2.57,0,0,0,1.83.92c1,0,1.1-.56,1.48-.89,1.43-1.27,2.76-2.56,4.15-3.83.86-.79,1.94-.89,3.7-.35a13.14,13.14,0,0,1,4.12,2.41,9.73,9.73,0,0,0,2.52-1.34c1.79-1,2-1,4,0a27.1,27.1,0,0,1,2.39,1.41c1.3-1.21,2.47-2.39,3.83-3.54,1.15-1,2.15-1,3.52-.08a25.27,25.27,0,0,1,2,1.7c.33.27,0,.76.86.8s1.08-.47,1.53-.74c1.23-.75,2.46-1.51,3.65-2.27a2.1,2.1,0,0,1,2.47,0c.82.47,1.85.88,2.89,1.37,1.93-1.19,2.31-2.55,3.56-3.76,1.93-1.87,2.49-2,6.46-.86a12.76,12.76,0,0,1,4.47,2.11,1.63,1.63,0,0,0,2.25,0,9.23,9.23,0,0,0,1.89-2.39c.78-1,1.37-1.07,3.37-.45a17.29,17.29,0,0,1,7.57,4.52c.19.19.41.37.71.64,1.23-.54,1.32-1.19,1.83-1.75a9,9,0,0,1,3.49-2.88,4.94,4.94,0,0,1,4.62.07,22.16,22.16,0,0,1,5.82,4c.6.55,1.13.73,2.37.31s2.74-.74,3.77-1.23a3.79,3.79,0,0,1,3.64.06,8.9,8.9,0,0,1,3.56,2.38c.41.56.89,1.1,1.5,1.87,1.16-1.33,2.06-2.44,3.1-3.53a14,14,0,0,1,2.51-2.18,6.65,6.65,0,0,1,6-.27c3.14,1.14,4.24,2.75,5.81,4.26a3.59,3.59,0,0,0,1.47,1.13c3.78-1.45,3.82-3.89,8.07-5.29l2.35,2.62c1.27-.78,3.12-1.12,4.41-1.72a1.68,1.68,0,0,1,1.91.14,18.85,18.85,0,0,1,3,2.42,28.92,28.92,0,0,0,8-4.2c.64-.54,1.25-.61,2.55-.46a14,14,0,0,1,6.37,2.39c1.64-1,2.19-2.1,3.43-3.07,2.16-1.68,2.52-1.71,5.13-.14a17.35,17.35,0,0,1,1.91,1.36c.52.42,1,.86,1.58,1.45a19.27,19.27,0,0,0,1.94-1.75c.54-.67,1.25-.6,2.41-.27a42.56,42.56,0,0,1,6,2.39c1,.47,1.45.47,2-.12s1.41-1,2-1.46a2.12,2.12,0,0,1,2.81,0,10.06,10.06,0,0,1,3.17,2.85c.41.68,1.06.59,2,.17,4.91-2.19,5-2.19,8.11.62.43.39.74.54,1.57.21l.73-.3c2.51-1,2.55-1,5.14,0,1,.36,1.43.35,2-.14,1-.8,2.18-1.58,3.31-2.36a5.66,5.66,0,0,1,2.45-1l2.93,3.68a9.1,9.1,0,0,0,2.28,2c2.75,1.76,5.59,1.86,8.9.3,2.16-1,2.16-1,4,.14,2.43,1.53,2.45,1.53,5.43.16a7.61,7.61,0,0,0,1.79-1c1.13-1,2-.64,3,0a45.59,45.59,0,0,1,4.77,3.83c.76.63,1.37.68,2.53.17a26.73,26.73,0,0,0,5.08-2.87,1.72,1.72,0,0,1,2.48,0c.12.1.31.17.44.26,2,1.31,2,1.31,4.47.16l.35-.15c3-1.51,3.17-1.55,5.57.08,1.75,1.18,2.41-.08,3.58-.16,2.17.46,4.51.09,6.92.26-2.88.73-7,1.12-4,3.28a96.76,96.76,0,0,0-13.13-.59,64.21,64.21,0,0,0-12.1,1.4c-1.25.26-2.1.58-.69,1.19a15.89,15.89,0,0,0,5.27,1.37c4.53.38,9.13.63,13.11,1.78,1.47.43,2.57.06,2.61-.71a2.64,2.64,0,0,1,.09-1.15c.23-.47,1.2-.74,2.25-.64s.36.51.27.79c-.41,1.23.91,1.69,3.63,1.19,7.61-1.38,15.55-2.31,23.66-3,1.85-.16,2.5,0,2.12.77-.21.45,0,.91.49,1.33.84.73.49,1.18-1.56,1.36-2.42.22-3.66,1-4.38,1.87-.42.52-.2,1,1.36,1.13a38,38,0,0,0,8.47.23c.22,0,.47,0,.67,0,.38.3-1,.41-.29.77a26.16,26.16,0,0,1,4.46-.21c1.27,0,1.37.35.63.56-2.59.74-.75,1.11.59,1.56a6.17,6.17,0,0,1,2.18,1.4,6,6,0,0,0,2.49,1.56c1.27.36,2.62,1.29,4.22.54s-.87-1.1-1.76-1.59c-.46-.26-2-.32-1.41-.71s1.83-.18,2.78,0a3.44,3.44,0,0,1,1.71.6c1.16,1.1,3,.82,4.75.37a13.3,13.3,0,0,1,3.08-.86c2.51.08,4.75-.17,7.12-.32s3.9-.18,4.52-1.2h0a58,58,0,0,0,6.11-.42c-.47.61-1.78.82-3,1-2.26.32-2.44.51-.89,1.26.26.13.59.23,1.06.4-1.76.2-3.15-.26-4.64-.14-.51,0-1.09,0-1.26.27s.47.26.65.39c1.62,1.25,3.94,1.16,6.58.65a6.27,6.27,0,0,1,2.9-.07,1.77,1.77,0,0,0,1.34,0c.34-.2,0-.39-.2-.58-.45-.46-1.68-.58-2.33-.94-.34-.19-.75-.41-.56-.67s1-.09,1.46-.1c1.16,0,2.89-1,2.59-1.43s-.76-.21-1.22-.18c-.83,0-1.65.11-2.47.16,1.22-.7,3.6-.86,4.58-1.68l.19,0m-366.3,0-.19,0c-3.46,0-7.1,0-10.12.71a37.31,37.31,0,0,1-6.17,1.12c-6.66.52-5.25.8-7.2-1.87-.32-.43-.9-1,0-1.28a8.71,8.71,0,0,1,3.64,0,19,19,0,0,1,5.68,1.7,2.42,2.42,0,0,0,2.69-.06,11.82,11.82,0,0,1,5.19-1.38c2.3-.2,4.58-.46,6.84-.74,1.16-.14,1.79-.54,1.9-1,.16-.69-1.23.09-1.55-.25-.14-.16-.57-.26-.8-.4a5.08,5.08,0,0,0-4.47-.27,19.22,19.22,0,0,1-8.35.39,11.73,11.73,0,0,1,1.71-.74c3.25-.91,5.29-2.18,6.52-3.69a106.73,106.73,0,0,0,19.22,1.08c-.16.87,1.19,1.54,1.75,2.48a9.19,9.19,0,0,0,1.79-2.5,23.09,23.09,0,0,1,4.67-.29c5.63-.37,10.72-1.4,16.07-2.11,4.56-.6,9.12-1.23,13.36-2.18.09,1.34,1.65,2.46,3.24,3.69,1.44-.81,1.79-1.73,2.82-2.5a3.51,3.51,0,0,1,2.22-1.08c1.32-.08,1.29.62,1.9,1,2.09,1.16,4.14,2.34,6.47,3.67a3.67,3.67,0,0,1,1.58-3.5,2.61,2.61,0,0,1,3.53,0,9.38,9.38,0,0,1,3.42,4.44,11.65,11.65,0,0,0,2.91-2.09,9.76,9.76,0,0,1,2.53-1.69,11,11,0,0,1,7.69,0,9.62,9.62,0,0,1,1.16.55c3.28,1.88,3.48,1.9,7.31.12a26.65,26.65,0,0,0,2.6-1.55c1.24,0,1.66.29,2,.77a40.49,40.49,0,0,1,3.85,7.27c1,2.66,2.39,5.41.33,8-1.54,1.93-1.71,3.42,1.88,4.91,1.44.59,1.19,1.33-.82,1.7-1.31.25-1.15.51-.52.87a7.51,7.51,0,0,1,2.82,2.79c3,4.72,2.27,9.51,1.35,14.29-.16.85.1,1.8-1.29,2.64-2.17-1.19-.51-2.39-.28-3.57a21.38,21.38,0,0,0-4,.76c-6.89,1.23-14.27,1.36-21.55,1.65a179.56,179.56,0,0,0-19,1.64c-2.88.43-8.13-.34-9.56-1.45a1.41,1.41,0,0,0-1.35-.27c-2,.44-4.22.48-6.29.78-1.26.18-2.4.39-1.69,1.13.42.43-.26.71-1.25.69-1.72,0-4.09.13-4.88-.47-1-.75,1.39-.93,2.57-1.26a1.29,1.29,0,0,0,.21-.06c.35-.14.9-.26.68-.5s-.86-.21-1.32-.19a60.41,60.41,0,0,0-7,.52c-1.19.21-2.39.51-2.52,1.08-.17.81-1,.51-1.91.27a15,15,0,0,0-5.84-.23c-1.37.21-2.77.39-4.48.63.48-.64.7-1.12.25-1.6a1.28,1.28,0,0,0-1-.42,1.12,1.12,0,0,0-1,.4,3.31,3.31,0,0,0-.27.72c-.13.28.4.74-.59.8a2,2,0,0,1-1.76-.66c-.72-1.13-1.48-.44-2.25,0a8.06,8.06,0,0,0-.72.43,5.44,5.44,0,0,1-3.29.58c-1.54-.11-.89-.65-1-1-.09-.19.11-.47-.57-.51s-.9.2-.88.41c.11,1.16-1.69,1-3.41.85-4.4-.34-8.87-.46-13.33-.54-11.84-.2-23.64.28-35.47.4-3.7,0-7.43.13-11.14-.17-1.19-.09-3.32-.23-3.15.58.34,1.64-1.65,1.59-4.37,1.29-.32,0-.68,0-1,0-4.6-.06-9,.37-13.51.74-2.4.2-4.19,0-5.13-1-.32-.34-.77-.42-1.54-.37-3.5.24-7,.42-10.48.7-1.54.13-2.31,0-2.21-.66s-.89-.64-2-.39a54.05,54.05,0,0,1-7.57,1.17c-6,.47-12,.59-18.13.64-2,0-3.45,0-3.57-1.07,0-.45-.6-.9-1.87-1a3.65,3.65,0,0,0-2.64.65,2.92,2.92,0,0,1-3.41.23,2.05,2.05,0,0,0-1.54-.18c-.55.16-.4.44-.38.68,0,.53,1.17.85,1.51,1.31h0a24.22,24.22,0,0,1-4.47-.3,18.08,18.08,0,0,0-7.75.14c-1.33.37-2,.07-2-.55s0-1.22,0-2a18.54,18.54,0,0,0-5.26,3.31c-.25.21-.15.67-1.15.54-.75-.09-.7-.44-.7-.72,0-.6,0-1.2,0-1.79s-.24-.77-1.6-.48a30.7,30.7,0,0,1-4.91.44c-1.82.08-4.19,0-5.22.65-2.77,1.68-5.06.57-7.52,0a14.42,14.42,0,0,1-1.57-.53,4.12,4.12,0,0,0-3.47.17c-.64.3-1,.68-1,1-.12.78-1,.87-2.51.62-.63-.1-1.31-.14-2-.2-10-.89-20-1.62-29.84.18-1,.19-1.38,0-1.71-.34-1.11-1-3.28-1.31-5.78-1.38a107.18,107.18,0,0,0-10.81.45c-1.54.11-3.1.47-2.46-.72.21-.38-.82-.73-1.62-1.11-1.4.9-3.82,1.29-5.29,2.1a3.05,3.05,0,0,1-2.3.21,29.58,29.58,0,0,0-6.88-.38c-3.92.19-7.78.69-11.81.51-1.14-.05-2.84.14-3.11-.4s1.59-.43,2.43-.66l.24,0c.58-.11,1.14-.31.82-.56s-1,0-1.44.08a51,51,0,0,1-11.44,1.16,111.36,111.36,0,0,0-15.33.53,3.8,3.8,0,0,1-3-.55c-.66-1.12-2.48-.68-3.86-.57-1.77.14-3.53.13-5.3.18a61.09,61.09,0,0,0-8.19.57c-2.77.44-4.26,0-4.22-1.29,0-.3,1-.7-.15-.92a5.59,5.59,0,0,0-2.36.27c-.81.18-1.58.4-2.37.6a7.08,7.08,0,0,1-3.93.24,2.2,2.2,0,0,0-2.29.51,17.32,17.32,0,0,0-.79,1.7c-.77-.09-.77-.33-.72-.52.31-1.11-.82-1.29-3.28-1.08a59.45,59.45,0,0,1-7.78.26c-11.39-.55-22.74-.2-34.1.1a54,54,0,0,1-11.38-.62,9.1,9.1,0,0,0-4.43,0,2.66,2.66,0,0,1-1.63.09c-.63-.27.08-.52.42-.73a5.45,5.45,0,0,0,2.13-2.64c.19-.37.38-.93-.92-1.07a2.49,2.49,0,0,0-2.31.79,15.93,15.93,0,0,1-1.53,1.55,4.15,4.15,0,0,1-3.1.31c-1.23-.27-.58-.65-.26-1s.61-.65.88-1,.27-.58-.35-.78a3.44,3.44,0,0,0-2.06.18c-.86.25-1,.63-1,1a5.13,5.13,0,0,0,.46,2.5c.11.22.26.55-.52.62a1.91,1.91,0,0,1-1.19-.33c-2.28-1.22-2.65-2.61-2.11-4.08.18-.49.44-1,.72-1.59-2.52.36-3.51,1-3.44,1.81.1,1,.37,2,.49,3,0,.32.32.77-.94.83a2.28,2.28,0,0,1-2-.65c-.24-.3-.39-.61-.62-.91a2.87,2.87,0,0,0-2-.73c-2.85-.32-3.86.1-4.08,1.76-.07.52-.21,1.11-1.67,1.1s-.69-.65-.9-1c-.4-.67-.33-1.67-2.13-1.74-2.48-.11-5.31-.59-7.61.43-1.46.64-3.21,1.18-4.92,1.79a2,2,0,0,0-.9-1.67c-.54-.37-1.72-.68-.94-1.19s1.94-.18,3-.12,2,.09,1.6-.56-2.41-1.07-4.63-.79c-1.57.2-4.1.15-2.7,1.41.62.56.2,1.22-1.44,1.1-5-.37-9.5.36-14.08,1a5.31,5.31,0,0,1-2.85,0c-.85-.37-.56-.86-.2-1.29s1.05-1.15,1.75-1.9a25.63,25.63,0,0,1-12.5-.71c-.14.87.67,1.24,2,1.5a22.42,22.42,0,0,1,3.05.73c.8.31,1.35.81.43,1.22a3.9,3.9,0,0,1-2.7-.16,9.13,9.13,0,0,1-2.38-1.34,2.37,2.37,0,0,0-2-.45c-1,.24-.48.63-.09.93.73.56,1.51,1.1,2.28,1.64.29.2.84.4.34.65a3,3,0,0,1-1.64.11c-4.54-.48-7.78-1.6-9.79-3.35-.31-.27-.3-.74-1.26-.71-3,.1-6-.53-9-.07-.6.09-1.55.06-1.4.44s1,.18,1.51.22a16.32,16.32,0,0,1,7.15,1.81c.62.38,1.1.85.2,1.26a5,5,0,0,1-3,0,13.45,13.45,0,0,1-3.21-1.31c-.56-.22-1.1-.7-2-.35-3,1.13-6.66.8-10.15.88-1.6,0-2.12-.26-2-.87.18-.81-.25-1.53-1.81-2.09-2-.74-3.76-1.56-4-2.81-1.12.37-.72.79-.78,1.15-.08.56-.51,1-1.64,1.35a2.67,2.67,0,0,1-.94,0c-.39-.07-.29-.23-.11-.36,1.1-.8-.53-.54-1.37-.62-1.56-.15-1.78.74-2.68.72-3.76-.11-2.25.62-1.4,1.29s.44,1.09-1.64,1.15c-.67,0-1.35,0-2,0-4.44,0-5.41.49-4.59,2.29,0,.08-.12.18-.19.27-3.73-.58-4.2-1.4-1.51-2.56,1.18-.5,2.4-1,3.6-1.48.91-.37,1.15-.82.38-1.23a3.39,3.39,0,0,0-2.66.12,10.45,10.45,0,0,1-3.84.69,2,2,0,0,0-1.53.45,5.08,5.08,0,0,1-2.49.85,69.72,69.72,0,0,1-12.49.57,2.53,2.53,0,0,1-1.27-.3c-1.39-.9.33-2.58,2.88-2.84,2.19-.22,4.38.13,6.54,0,1.31-.08,3.06.48,3.73,0s-1.69-.5-2.12-1c-.24-.26-.72-.5-.37-.79a1.36,1.36,0,0,1,1-.16c2.12.21,4.14,1.27,4,2.23-.09.49.47.54,1.31.54a7.92,7.92,0,0,0,4.72-1.17,5.88,5.88,0,0,1,3.91-1.34c.93,0,1.67,0,1.36.59-.66,1.2-.61,1.21,2.26.92.9-.09,1.82-.18,2.67-.32s1.51-.34,1.24-.7-1.2-.15-1.87-.07-1.15.28-1.43-.1.17-.49.77-.59a35.06,35.06,0,0,1,4.19-.38,4.69,4.69,0,0,0,2.42-.46c.82-.66-1.87-2.44-3.69-2.47-1.18,0-2.37,0-3.55,0-.83,0-1.76-.16-1.66-.63s1-.38,1.77-.38c1.1,0,2.2,0,3.3,0,.75,0,1.46-.1,1.37-.47-.21-.88,1.09-1.61,1.41-2.42.75-1.93-.25-2.31-3.92-2.16-2.4.1-4.16-.19-4.28-1.43-3.09,1.12-6.41,1.93-8.85,3.33-1-1-.29-1.53,1.12-2,.85-.29,1.82-.51,2.73-.77,2.22-.63,2.23-1.23-.11-1.8a38.65,38.65,0,0,0-5.81-.7c-2.37-.19-4.91-.13-7-.8-.9-.29-1.94-.62-1.37-1.1s1.65-.14,2.53,0a99.34,99.34,0,0,1,18.75,3.84c2.67.76,5.78.48,7.44-.69a9.82,9.82,0,0,0,1.49-1.33,9,9,0,0,1,2.24-1.52c.58-.31,2.35-.28,1.94-.79s-2-.19-3-.34c-.12,0-.18-.1-.28-.16,1.15-.81,3.27-1.06,5.13-1.45s3.38-.8,3.84-1.58,1.28-.81,2.7-.76c2.46.1,4.83,0,6.46-.89a20.18,20.18,0,0,0,3.3-2.11,16,16,0,0,1,8.06-3.47c1.1-.18.93-.4.52-.72-1.08-.83-2.65-.53-4.2-.33-.59.08-1.4.31-1.67-.1s.65-.46,1.27-.53a41.15,41.15,0,0,1,4.76-.27c2.83,0,3.35-.28,3.43-1.44.11-1.56-.51-3.15.94-4.66.42,0,.64.42,1.18.11a5.46,5.46,0,0,0,.82-.65c1.57-1.25,2.94-1.44,5.84-.67a28,28,0,0,0,7.83,1,9.63,9.63,0,0,0,5.08-1.14,26,26,0,0,1,4.08-2.53c1.23-.53,2-.66,2.84.15a33.35,33.35,0,0,0,2.76,2.13c1.13.85,2.35,1,4.21.38,2.56-.85,4.56-1.88,5.07-3.29.12-.31.12-.71.82-.84a3.07,3.07,0,0,1,2,.5c2.18.84,3.27,2,5.17,3.11.59-.77,1.15-1.38,1.55-2s1.36-1.26,3.26-1.21,3.16.46,3.61,1.25c.21.37.37.75.65,1.31,1.14-1.06,1.24-2,1.74-3a9,9,0,0,1,5.19-4.46,3.41,3.41,0,0,1,2.91,0,5.22,5.22,0,0,1,3.23,3.07,17.89,17.89,0,0,0,5-2.54c1.08-.72,2-1.47,3-2.2.28-.21.38-.54,1-.55.84,0,.89.37,1.17.6a37.73,37.73,0,0,0,8.17,5.66c.43.21.91.4,1.59.7,1.2-2.34,4.13-4.12,8.14-5.62a3,3,0,0,1,1.7-.36c.82.11.56.46.62.73.36,1.6.68,3.2,1.12,4.79a1.16,1.16,0,0,0,1.12,1c1.1.19,1.54-.31,2.19-.55a9.89,9.89,0,0,0,3.34-2c.66-.58,1.39-.57,2.5-.17a11.87,11.87,0,0,1,3.69,2.37,2.57,2.57,0,0,0,1.83.92c1,0,1.1-.56,1.47-.89,1.44-1.27,2.77-2.56,4.16-3.83.86-.79,1.94-.89,3.7-.35a13.14,13.14,0,0,1,4.12,2.41,9.73,9.73,0,0,0,2.52-1.34c1.79-1,2-1,4,0a27.1,27.1,0,0,1,2.39,1.41c1.3-1.21,2.47-2.39,3.83-3.54,1.15-1,2.15-1,3.52-.08a23.34,23.34,0,0,1,1.94,1.7c.34.27,0,.76.87.8s1.08-.47,1.53-.74c1.23-.75,2.45-1.51,3.65-2.27a2.1,2.1,0,0,1,2.47,0c.82.47,1.85.88,2.9,1.37,1.92-1.19,2.3-2.55,3.55-3.76,1.93-1.87,2.49-2,6.46-.86a12.76,12.76,0,0,1,4.47,2.11,1.63,1.63,0,0,0,2.25,0,9.23,9.23,0,0,0,1.89-2.39c.78-1,1.37-1.07,3.37-.45a17.29,17.29,0,0,1,7.57,4.52c.19.19.41.37.71.64,1.23-.54,1.32-1.19,1.83-1.75a9,9,0,0,1,3.49-2.88,4.94,4.94,0,0,1,4.62.07,22.16,22.16,0,0,1,5.82,4c.6.55,1.13.73,2.37.31s2.74-.74,3.77-1.23a3.79,3.79,0,0,1,3.64.06,8.9,8.9,0,0,1,3.56,2.38c.41.56.89,1.1,1.5,1.87,1.16-1.33,2.06-2.44,3.1-3.53A14,14,0,0,1,1323,1307a6.65,6.65,0,0,1,6-.27c3.14,1.14,4.24,2.75,5.81,4.26a3.59,3.59,0,0,0,1.47,1.13c3.78-1.45,3.82-3.89,8.07-5.29l2.35,2.62c1.27-.78,3.12-1.12,4.41-1.72a1.68,1.68,0,0,1,1.91.14,18.85,18.85,0,0,1,3,2.42,28.92,28.92,0,0,0,8-4.2c.63-.54,1.25-.61,2.55-.46a14,14,0,0,1,6.37,2.39c1.64-1,2.19-2.1,3.43-3.07,2.16-1.68,2.52-1.71,5.14-.14a18.19,18.19,0,0,1,1.9,1.36c.52.42,1,.86,1.58,1.45a19.27,19.27,0,0,0,1.94-1.75c.53-.67,1.25-.6,2.41-.27a42.56,42.56,0,0,1,6,2.39c1,.47,1.45.47,2-.12s1.41-1,2-1.46a2.12,2.12,0,0,1,2.81,0,10.06,10.06,0,0,1,3.17,2.85c.41.68,1.06.59,2,.17,4.91-2.19,5-2.19,8.11.62.43.39.74.54,1.57.21l.73-.3c2.51-1,2.55-1,5.14,0,1,.36,1.43.35,2-.14,1-.8,2.18-1.58,3.31-2.36a5.66,5.66,0,0,1,2.45-1c1,1.24,2,2.46,2.92,3.68a9.34,9.34,0,0,0,2.29,2c2.75,1.76,5.59,1.86,8.9.3,2.16-1,2.16-1,4,.14,2.43,1.53,2.45,1.53,5.43.16a7.61,7.61,0,0,0,1.79-1c1.13-1,2-.64,3,0a46.81,46.81,0,0,1,4.78,3.83c.75.63,1.36.68,2.52.17a26.73,26.73,0,0,0,5.08-2.87,1.72,1.72,0,0,1,2.48,0c.12.1.31.17.44.26,2,1.31,2,1.31,4.47.16l.35-.15c3-1.51,3.17-1.55,5.57.08,1.75,1.18,2.41-.08,3.58-.16,2.17.46,4.51.09,6.92.26-2.88.73-7,1.12-4,3.28a96.76,96.76,0,0,0-13.13-.59,64.21,64.21,0,0,0-12.1,1.4c-1.25.26-2.09.58-.69,1.19a15.89,15.89,0,0,0,5.27,1.37c4.53.38,9.13.63,13.11,1.78,1.47.43,2.57.06,2.61-.71a2.8,2.8,0,0,1,.09-1.15c.23-.47,1.2-.74,2.25-.64s.36.51.27.79c-.41,1.23.91,1.69,3.63,1.19,7.61-1.38,15.55-2.31,23.67-3,1.84-.16,2.49,0,2.11.77-.21.45,0,.91.49,1.33.84.73.49,1.18-1.56,1.36-2.42.22-3.66,1-4.38,1.87-.42.52-.2,1,1.36,1.13a38,38,0,0,0,8.47.23c.22,0,.47,0,.67,0,.38.3-1,.41-.29.77a26.16,26.16,0,0,1,4.46-.21c1.27,0,1.37.35.63.56-2.59.74-.75,1.11.59,1.56a6.17,6.17,0,0,1,2.18,1.4,6,6,0,0,0,2.49,1.56c1.27.36,2.62,1.29,4.22.54s-.87-1.1-1.76-1.59c-.46-.26-2-.32-1.41-.71s1.83-.18,2.78,0a3.44,3.44,0,0,1,1.71.6c1.16,1.1,3,.82,4.75.37a13.3,13.3,0,0,1,3.08-.86c2.51.08,4.75-.17,7.12-.32s3.9-.18,4.52-1.2h0a58,58,0,0,0,6.11-.42c-.47.61-1.77.82-3,1-2.26.32-2.44.51-.89,1.26.26.13.59.23,1.06.4-1.76.2-3.15-.26-4.64-.14-.51,0-1.09,0-1.26.27s.47.26.65.39c1.63,1.25,3.94,1.16,6.58.65a6.27,6.27,0,0,1,2.9-.07,1.77,1.77,0,0,0,1.34,0c.34-.2,0-.39-.2-.58-.45-.46-1.68-.58-2.33-.94-.34-.19-.75-.41-.56-.67s1-.09,1.46-.1c1.16,0,2.89-1,2.59-1.43s-.76-.21-1.22-.18c-.83,0-1.65.11-2.47.16,1.22-.7,3.6-.86,4.58-1.68l.18,0m-565.15,0-.19,0c-3.46,0-7.1,0-10.12.71a37.31,37.31,0,0,1-6.17,1.12c-6.66.52-5.25.8-7.2-1.87-.32-.43-.91-1,0-1.28a8.72,8.72,0,0,1,3.64,0,19,19,0,0,1,5.69,1.7,2.42,2.42,0,0,0,2.69-.06,11.78,11.78,0,0,1,5.19-1.38c2.3-.2,4.58-.46,6.84-.74,1.16-.14,1.79-.54,1.9-1,.16-.69-1.23.09-1.55-.25-.14-.16-.57-.26-.81-.4a5.06,5.06,0,0,0-4.46-.27,19.26,19.26,0,0,1-8.36.39,12.36,12.36,0,0,1,1.72-.74c3.25-.91,5.28-2.18,6.52-3.69a106.73,106.73,0,0,0,19.22,1.08c-.16.87,1.19,1.54,1.75,2.48a9.19,9.19,0,0,0,1.79-2.5,23,23,0,0,1,4.66-.29c5.64-.37,10.73-1.4,16.08-2.11,4.56-.6,9.12-1.23,13.36-2.18.09,1.34,1.64,2.46,3.24,3.69,1.44-.81,1.78-1.73,2.82-2.5a3.48,3.48,0,0,1,2.22-1.08c1.32-.08,1.29.62,1.9,1,2.08,1.16,4.14,2.34,6.47,3.67a3.65,3.65,0,0,1,1.58-3.5,2.61,2.61,0,0,1,3.53,0,9.44,9.44,0,0,1,3.42,4.44,11.65,11.65,0,0,0,2.91-2.09,9.86,9.86,0,0,1,2.52-1.69,11,11,0,0,1,7.7,0,8.8,8.8,0,0,1,1.15.55c3.29,1.88,3.48,1.9,7.32.12a26.65,26.65,0,0,0,2.6-1.55c1.24,0,1.66.29,2,.77a41.14,41.14,0,0,1,3.85,7.27c1,2.66,2.39,5.41.33,8-1.54,1.93-1.71,3.42,1.87,4.91,1.45.59,1.2,1.33-.81,1.7-1.32.25-1.15.51-.52.87a7.51,7.51,0,0,1,2.82,2.79c3,4.72,2.26,9.51,1.35,14.29-.17.85.1,1.8-1.3,2.64-2.16-1.19-.5-2.39-.27-3.57a21.38,21.38,0,0,0-4,.76c-6.89,1.23-14.28,1.36-21.55,1.65a179.33,179.33,0,0,0-19,1.64c-2.89.43-8.13-.34-9.56-1.45a1.41,1.41,0,0,0-1.35-.27c-2,.44-4.23.48-6.29.78-1.26.18-2.41.39-1.69,1.13.42.43-.27.71-1.25.69-1.72,0-4.1.13-4.88-.47-1-.75,1.38-.93,2.57-1.26a1.29,1.29,0,0,0,.21-.06c.35-.14.89-.26.68-.5s-.86-.21-1.33-.19a60.23,60.23,0,0,0-6.94.52c-1.19.21-2.39.51-2.52,1.08-.18.81-1,.51-1.91.27a15,15,0,0,0-5.84-.23c-1.37.21-2.77.39-4.49.63.48-.64.71-1.12.26-1.6a1.28,1.28,0,0,0-1-.42,1.11,1.11,0,0,0-1,.4,2.87,2.87,0,0,0-.27.72c-.13.28.4.74-.59.8a2,2,0,0,1-1.76-.66c-.72-1.13-1.48-.44-2.25,0a8.06,8.06,0,0,0-.72.43,5.44,5.44,0,0,1-3.29.58c-1.54-.11-.89-.65-1.06-1-.08-.19.12-.47-.56-.51s-.9.2-.88.41c.11,1.16-1.69,1-3.41.85-4.4-.34-8.87-.46-13.33-.54-11.84-.2-23.64.28-35.47.4-3.71,0-7.43.13-11.14-.17-1.19-.09-3.32-.23-3.15.58.34,1.64-1.65,1.59-4.37,1.29-.32,0-.68,0-1,0-4.6-.06-9,.37-13.51.74-2.41.2-4.19,0-5.13-1-.32-.34-.77-.42-1.55-.37-3.49.24-7,.42-10.47.7-1.54.13-2.31,0-2.21-.66s-.89-.64-2-.39a54.05,54.05,0,0,1-7.57,1.17c-6,.47-12.05.59-18.14.64-2,0-3.44,0-3.56-1.07-.06-.45-.6-.9-1.87-1a3.64,3.64,0,0,0-2.64.65,2.92,2.92,0,0,1-3.41.23,2.07,2.07,0,0,0-1.55-.18c-.55.16-.39.44-.37.68.05.53,1.16.85,1.51,1.31h0a24.22,24.22,0,0,1-4.47-.3,18.08,18.08,0,0,0-7.75.14c-1.33.37-2,.07-2-.55s0-1.22,0-2a18.61,18.61,0,0,0-5.25,3.31c-.25.21-.15.67-1.16.54-.75-.09-.69-.44-.7-.72,0-.6,0-1.2,0-1.79s-.24-.77-1.6-.48a30.8,30.8,0,0,1-4.91.44c-1.82.08-4.19,0-5.22.65-2.77,1.68-5.07.57-7.52,0a14.42,14.42,0,0,1-1.57-.53,4.12,4.12,0,0,0-3.47.17c-.65.3-1,.68-1,1-.13.78-1,.87-2.52.62-.62-.1-1.3-.14-2-.2-10-.89-20-1.62-29.84.18-1,.19-1.38,0-1.71-.34-1.12-1-3.28-1.31-5.79-1.38a107.11,107.11,0,0,0-10.8.45c-1.54.11-3.1.47-2.46-.72.21-.38-.82-.73-1.62-1.11-1.4.9-3.82,1.29-5.3,2.1a3,3,0,0,1-2.29.21,29.62,29.62,0,0,0-6.88-.38c-3.92.19-7.79.69-11.81.51-1.14-.05-2.84.14-3.11-.4s1.59-.43,2.43-.66l.24,0c.58-.11,1.14-.31.82-.56s-1,0-1.44.08a51,51,0,0,1-11.44,1.16,111.56,111.56,0,0,0-15.34.53,3.77,3.77,0,0,1-2.94-.55c-.66-1.12-2.48-.68-3.86-.57-1.77.14-3.53.13-5.3.18a61.36,61.36,0,0,0-8.2.57c-2.76.44-4.25,0-4.21-1.29,0-.3,1-.7-.15-.92a5.57,5.57,0,0,0-2.36.27c-.82.18-1.58.4-2.37.6a7.08,7.08,0,0,1-3.93.24,2.2,2.2,0,0,0-2.29.51,17.32,17.32,0,0,0-.79,1.7c-.77-.09-.77-.33-.72-.52.31-1.11-.83-1.29-3.28-1.08a59.5,59.5,0,0,1-7.78.26c-11.4-.55-22.74-.2-34.11.1a54,54,0,0,1-11.38-.62,9.06,9.06,0,0,0-4.42,0,2.69,2.69,0,0,1-1.64.09c-.62-.27.09-.52.42-.73a5.42,5.42,0,0,0,2.14-2.64c.19-.37.38-.93-.92-1.07a2.47,2.47,0,0,0-2.31.79,15.93,15.93,0,0,1-1.53,1.55,4.15,4.15,0,0,1-3.1.31c-1.23-.27-.58-.65-.26-1s.61-.65.88-1,.27-.58-.35-.78a3.44,3.44,0,0,0-2.06.18c-.86.25-1,.63-1,1a5,5,0,0,0,.46,2.5c.11.22.26.55-.52.62a1.91,1.91,0,0,1-1.19-.33c-2.29-1.22-2.65-2.61-2.11-4.08.18-.49.44-1,.72-1.59-2.52.36-3.52,1-3.44,1.81.09,1,.37,2,.48,3,0,.32.33.77-.93.83a2.28,2.28,0,0,1-2-.65c-.24-.3-.4-.61-.62-.91a2.87,2.87,0,0,0-2-.73c-2.85-.32-3.86.1-4.09,1.76-.07.52-.2,1.11-1.67,1.1s-.68-.65-.89-1c-.4-.67-.34-1.67-2.13-1.74-2.48-.11-5.31-.59-7.61.43-1.46.64-3.21,1.18-4.92,1.79a2,2,0,0,0-.91-1.67c-.53-.37-1.71-.68-.94-1.19s2-.18,3-.12,2,.09,1.6-.56-2.41-1.07-4.63-.79c-1.57.2-4.1.15-2.7,1.41.62.56.2,1.22-1.44,1.1-5-.37-9.5.36-14.08,1a5.31,5.31,0,0,1-2.85,0c-.85-.37-.57-.86-.2-1.29s1-1.15,1.75-1.9a25.67,25.67,0,0,1-12.51-.71c-.13.87.68,1.24,2,1.5a22.42,22.42,0,0,1,3,.73c.79.31,1.35.81.42,1.22a3.87,3.87,0,0,1-2.69-.16c-1.2-.32-1.55-.91-2.38-1.34a2.39,2.39,0,0,0-2-.45c-1,.24-.48.63-.08.93.72.56,1.51,1.1,2.28,1.64.29.2.83.4.34.65a3,3,0,0,1-1.64.11c-4.55-.48-7.78-1.6-9.8-3.35-.3-.27-.3-.74-1.25-.71-3,.1-6-.53-9-.07-.61.09-1.55.06-1.4.44s1,.18,1.51.22a16.4,16.4,0,0,1,7.15,1.81c.62.38,1.09.85.2,1.26a5,5,0,0,1-3,0,13.45,13.45,0,0,1-3.21-1.31c-.56-.22-1.1-.7-2-.35-3,1.13-6.65.8-10.14.88-1.6,0-2.13-.26-2-.87.19-.81-.24-1.53-1.8-2.09-2-.74-3.77-1.56-4-2.81-1.11.37-.71.79-.77,1.15-.08.56-.51,1-1.64,1.35a2.67,2.67,0,0,1-.94,0c-.39-.07-.29-.23-.12-.36,1.11-.8-.52-.54-1.36-.62-1.57-.15-1.78.74-2.69.72-3.75-.11-2.24.62-1.39,1.29s.44,1.09-1.64,1.15c-.67,0-1.35,0-2,0-4.45,0-5.42.49-4.59,2.29,0,.08-.12.18-.19.27-3.74-.58-4.21-1.4-1.51-2.56,1.17-.5,2.4-1,3.6-1.48.9-.37,1.15-.82.38-1.23a3.39,3.39,0,0,0-2.66.12,10.45,10.45,0,0,1-3.84.69,2,2,0,0,0-1.53.45,5.12,5.12,0,0,1-2.49.85,69.76,69.76,0,0,1-12.49.57,2.53,2.53,0,0,1-1.27-.3c-1.39-.9.32-2.58,2.88-2.84,2.19-.22,4.37.13,6.54,0,1.31-.08,3.06.48,3.73,0s-1.69-.5-2.12-1c-.24-.26-.72-.5-.38-.79a1.4,1.4,0,0,1,1.06-.16c2.12.21,4.14,1.27,4,2.23-.08.49.47.54,1.32.54a7.92,7.92,0,0,0,4.72-1.17,5.85,5.85,0,0,1,3.9-1.34c.94,0,1.68,0,1.37.59-.66,1.2-.61,1.21,2.26.92.9-.09,1.82-.18,2.67-.32s1.51-.34,1.24-.7-1.21-.15-1.87-.07-1.15.28-1.44-.1.18-.49.78-.59a34.9,34.9,0,0,1,4.18-.38,4.71,4.71,0,0,0,2.43-.46c.81-.66-1.88-2.44-3.69-2.47-1.18,0-2.38,0-3.55,0-.84,0-1.76-.16-1.66-.63s1-.38,1.77-.38c1.1,0,2.2,0,3.3,0,.75,0,1.46-.1,1.37-.47-.21-.88,1.08-1.61,1.4-2.42.76-1.93-.24-2.31-3.91-2.16-2.4.1-4.16-.19-4.29-1.43-3.08,1.12-6.41,1.93-8.85,3.33-1-1-.28-1.53,1.13-2,.85-.29,1.82-.51,2.73-.77,2.22-.63,2.22-1.23-.11-1.8a38.65,38.65,0,0,0-5.81-.7c-2.37-.19-4.92-.13-7-.8-.91-.29-1.94-.62-1.37-1.1s1.65-.14,2.53,0a99.07,99.07,0,0,1,18.74,3.84c2.68.76,5.79.48,7.45-.69a9.26,9.26,0,0,0,1.48-1.33,9.1,9.1,0,0,1,2.25-1.52c.58-.31,2.34-.28,1.93-.79s-2-.19-3-.34c-.11,0-.17-.1-.27-.16,1.15-.81,3.27-1.06,5.13-1.45,1.71-.36,3.37-.8,3.83-1.58s1.29-.81,2.71-.76c2.46.1,4.83,0,6.46-.89a20.18,20.18,0,0,0,3.3-2.11,16,16,0,0,1,8.06-3.47c1.1-.18.93-.4.52-.72-1.08-.83-2.65-.53-4.2-.33-.59.08-1.4.31-1.67-.1s.65-.46,1.27-.53a41,41,0,0,1,4.75-.27c2.84,0,3.35-.28,3.44-1.44.11-1.56-.51-3.15.94-4.66.42,0,.64.42,1.18.11a5.46,5.46,0,0,0,.82-.65c1.57-1.25,2.94-1.44,5.84-.67a27.94,27.94,0,0,0,7.82,1,9.64,9.64,0,0,0,5.09-1.14,25.52,25.52,0,0,1,4.08-2.53c1.23-.53,2-.66,2.84.15a33.35,33.35,0,0,0,2.76,2.13c1.13.85,2.35,1,4.21.38,2.56-.85,4.56-1.88,5.07-3.29.11-.31.11-.71.81-.84a3.08,3.08,0,0,1,2,.5c2.18.84,3.27,2,5.16,3.11.6-.77,1.16-1.38,1.56-2s1.36-1.26,3.25-1.21,3.17.46,3.62,1.25c.21.37.37.75.64,1.31,1.14-1.06,1.25-2,1.75-3a8.94,8.94,0,0,1,5.19-4.46,3.41,3.41,0,0,1,2.91,0c2.14.78,2.53,1.86,3.23,3.07a18,18,0,0,0,5-2.54c1.07-.72,2-1.47,3-2.2.28-.21.38-.54,1-.55.84,0,.89.37,1.17.6a37.48,37.48,0,0,0,8.17,5.66c.43.21.9.4,1.58.7,1.21-2.34,4.14-4.12,8.15-5.62a3,3,0,0,1,1.69-.36c.83.11.57.46.63.73.36,1.6.68,3.2,1.12,4.79a1.15,1.15,0,0,0,1.11,1c1.1.19,1.55-.31,2.2-.55a9.89,9.89,0,0,0,3.34-2c.66-.58,1.38-.57,2.5-.17a11.87,11.87,0,0,1,3.69,2.37,2.55,2.55,0,0,0,1.83.92c.95,0,1.1-.56,1.47-.89,1.43-1.27,2.77-2.56,4.16-3.83.86-.79,1.94-.89,3.7-.35a13.26,13.26,0,0,1,4.12,2.41,9.9,9.9,0,0,0,2.52-1.34c1.79-1,2-1,4,0,.86.41,1.52.89,2.39,1.41,1.3-1.21,2.47-2.39,3.82-3.54,1.16-1,2.16-1,3.53-.08.79.53,1.24,1.14,1.94,1.7.34.27,0,.76.87.8s1.08-.47,1.53-.74c1.23-.75,2.45-1.51,3.65-2.27a2.1,2.1,0,0,1,2.47,0c.82.47,1.85.88,2.89,1.37,1.92-1.19,2.31-2.55,3.56-3.76,1.93-1.87,2.49-2,6.46-.86a12.84,12.84,0,0,1,4.47,2.11,1.62,1.62,0,0,0,2.24,0,9.28,9.28,0,0,0,1.9-2.39c.78-1,1.37-1.07,3.37-.45a17.35,17.35,0,0,1,7.57,4.52c.19.19.41.37.71.64,1.23-.54,1.32-1.19,1.83-1.75a9,9,0,0,1,3.49-2.88,4.94,4.94,0,0,1,4.62.07,22.1,22.1,0,0,1,5.81,4c.61.55,1.14.73,2.38.31s2.74-.74,3.77-1.23a3.79,3.79,0,0,1,3.64.06,9,9,0,0,1,3.56,2.38c.41.56.88,1.1,1.5,1.87,1.16-1.33,2.05-2.44,3.1-3.53a14.32,14.32,0,0,1,2.5-2.18,6.67,6.67,0,0,1,6-.27c3.14,1.14,4.24,2.75,5.81,4.26a3.59,3.59,0,0,0,1.47,1.13c3.78-1.45,3.82-3.89,8.07-5.29l2.35,2.62c1.27-.78,3.12-1.12,4.41-1.72a1.66,1.66,0,0,1,1.9.14,18.93,18.93,0,0,1,3,2.42,28.92,28.92,0,0,0,8-4.2c.63-.54,1.24-.61,2.55-.46a14,14,0,0,1,6.37,2.39c1.64-1,2.19-2.1,3.43-3.07,2.15-1.68,2.52-1.71,5.13-.14a18.36,18.36,0,0,1,1.91,1.36c.52.42.94.86,1.58,1.45a19.27,19.27,0,0,0,1.94-1.75c.53-.67,1.25-.6,2.4-.27a42.24,42.24,0,0,1,6,2.39c1,.47,1.44.47,2.05-.12s1.4-1,2-1.46a2.12,2.12,0,0,1,2.81,0,10.06,10.06,0,0,1,3.17,2.85c.41.68,1.05.59,2,.17,4.91-2.19,5-2.19,8.11.62.43.39.74.54,1.57.21l.73-.3c2.51-1,2.55-1,5.14,0,1,.36,1.43.35,2-.14,1-.8,2.17-1.58,3.31-2.36a5.67,5.67,0,0,1,2.44-1c1,1.24,2,2.46,2.93,3.68a9.28,9.28,0,0,0,2.28,2c2.76,1.76,5.6,1.86,8.91.3,2.16-1,2.16-1,4,.14,2.43,1.53,2.44,1.53,5.43.16a7.61,7.61,0,0,0,1.79-1c1.13-1,2-.64,3,0a45.59,45.59,0,0,1,4.77,3.83c.76.63,1.37.68,2.53.17a26.73,26.73,0,0,0,5.08-2.87,1.72,1.72,0,0,1,2.48,0,4.64,4.64,0,0,0,.44.26c2,1.31,2,1.31,4.47.16l.34-.15c3-1.51,3.18-1.55,5.58.08,1.75,1.18,2.41-.08,3.58-.16,2.16.46,4.51.09,6.92.26-2.88.73-7,1.12-4,3.28a96.76,96.76,0,0,0-13.13-.59,64.21,64.21,0,0,0-12.1,1.4c-1.25.26-2.1.58-.69,1.19a15.76,15.76,0,0,0,5.26,1.37c4.54.38,9.14.63,13.12,1.78,1.47.43,2.56.06,2.6-.71a2.8,2.8,0,0,1,.1-1.15c.23-.47,1.2-.74,2.25-.64s.36.51.27.79c-.41,1.23.91,1.69,3.63,1.19,7.61-1.38,15.55-2.31,23.66-3,1.85-.16,2.5,0,2.12.77-.22.45,0,.91.49,1.33.83.73.48,1.18-1.56,1.36-2.42.22-3.66,1-4.38,1.87-.42.52-.2,1,1.36,1.13a38,38,0,0,0,8.47.23c.22,0,.47,0,.67,0,.38.3-1,.41-.29.77a26,26,0,0,1,4.45-.21c1.28,0,1.38.35.64.56-2.59.74-.76,1.11.58,1.56a6.13,6.13,0,0,1,2.19,1.4,6,6,0,0,0,2.49,1.56c1.27.36,2.62,1.29,4.22.54s-.88-1.1-1.76-1.59c-.46-.26-2-.32-1.42-.71s1.84-.18,2.79,0a3.47,3.47,0,0,1,1.71.6c1.16,1.1,2.94.82,4.75.37,1.08-.27,2.11-.89,3.08-.86,2.51.08,4.75-.17,7.12-.32s3.89-.18,4.52-1.2h0a57.63,57.63,0,0,0,6.1-.42c-.46.61-1.77.82-3,1-2.26.32-2.44.51-.89,1.26.26.13.59.23,1.06.4-1.76.2-3.15-.26-4.65-.14-.5,0-1.09,0-1.26.27s.48.26.66.39c1.62,1.25,3.94,1.16,6.58.65a6.23,6.23,0,0,1,2.89-.07,1.77,1.77,0,0,0,1.34,0c.35-.2,0-.39-.19-.58-.45-.46-1.68-.58-2.33-.94-.35-.19-.75-.41-.57-.67s1-.09,1.47-.1c1.16,0,2.89-1,2.58-1.43s-.75-.21-1.21-.18c-.83,0-1.65.11-2.48.16,1.22-.7,3.61-.86,4.59-1.68l.18,0M530,1325.11a14.91,14.91,0,0,0,4.28,1,64.83,64.83,0,0,1,10.63,1.23c1.19.3,2.08,0,2.11-.49a1.81,1.81,0,0,1,.08-.8c.19-.33,1-.52,1.83-.44s.29.35.21.54c-.33.86.74,1.17,3,.83,6.17-1,12.61-1.6,19.19-2.1,1.5-.11,2,0,1.72.54-.18.31,0,.63.4.92.67.51.39.82-1.27,1a5.09,5.09,0,0,0-3.55,1.29c-.34.36-.17.68,1.1.79a35.71,35.71,0,0,0,6.87.16,4.77,4.77,0,0,1,.54,0c.31.21-.84.29-.23.53a23.81,23.81,0,0,1,3.61-.14c1,0,1.11.24.52.39-2.11.51-.61.77.47,1.08a5.09,5.09,0,0,1,1.77,1,4.93,4.93,0,0,0,2,1.08c1,.25,2.13.89,3.43.38s-.71-.77-1.43-1.11c-.37-.18-1.62-.22-1.15-.49a4.71,4.71,0,0,1,2.26,0,3.36,3.36,0,0,1,1.38.42c.94.77,2.39.57,3.86.26a11.89,11.89,0,0,1,2.5-.6c2,.06,3.85-.11,5.77-.22s3.16-.12,3.67-.83h0c1.74.09,3.28-.24,5-.29a4.77,4.77,0,0,1-2.45.69c-1.83.22-2,.36-.72.88.21.08.48.15.86.27-1.43.14-2.56-.18-3.77-.09-.4,0-.88,0-1,.18s.39.18.53.27c1.32.87,3.2.81,5.34.45a6.14,6.14,0,0,1,2.35,0,1.66,1.66,0,0,0,1.08,0c.28-.15,0-.28-.16-.41-.36-.32-1.36-.4-1.88-.65-.28-.14-.61-.29-.46-.47s.78-.06,1.19-.07c.93,0,2.34-.67,2.09-1s-.61-.14-1-.13l-2,.12c1-.49,2.92-.6,3.72-1.17l.15,0-.16,0a46.93,46.93,0,0,0-8.21.5,35.05,35.05,0,0,1-5,.77c-5.4.36-4.26.56-5.84-1.3-.26-.29-.73-.66,0-.88a8.3,8.3,0,0,1,3,0,17.64,17.64,0,0,1,4.61,1.18,2.2,2.2,0,0,0,2.18,0,11,11,0,0,1,4.21-1q2.8-.23,5.55-.52c.94-.09,1.45-.37,1.54-.7.13-.48-1,.06-1.25-.18a6.25,6.25,0,0,0-4.28-.46,18.38,18.38,0,0,1-6.78.27,13.08,13.08,0,0,1,1.39-.52,10.47,10.47,0,0,0,5.29-2.56,101.18,101.18,0,0,0,15.59.76c-.13.6,1,1.06,1.42,1.71a6.29,6.29,0,0,0,1.45-1.73,22.37,22.37,0,0,1,3.79-.2c4.56-.25,8.69-1,13-1.47,3.7-.41,7.4-.85,10.84-1.51.07.94,1.33,1.71,2.63,2.56,1.16-.56,1.44-1.2,2.28-1.73a3,3,0,0,1,1.8-.75c1.07-.06,1.05.43,1.54.66,1.69.81,3.36,1.63,5.25,2.55a2.73,2.73,0,0,1,4.15-2.44,6.78,6.78,0,0,1,2.77,3.08,9.65,9.65,0,0,0,2.36-1.45,8.09,8.09,0,0,1,2-1.17,10.3,10.3,0,0,1,6.24,0c.34.12.66.25.94.38,2.66,1.31,2.82,1.32,5.92.08a20.94,20.94,0,0,0,2.12-1.07c1,0,1.34.2,1.59.53a27.42,27.42,0,0,1,3.12,5.05c.79,1.84,1.94,3.75.26,5.55-1.24,1.34-1.38,2.37,1.53,3.4,1.17.42,1,.92-.66,1.18-1.07.17-.94.36-.43.6a5.78,5.78,0,0,1,2.29,1.94c2.42,3.28,1.84,6.6,1.09,9.91-.13.59.08,1.25-1,1.84-1.75-.83-.4-1.66-.22-2.48a20.23,20.23,0,0,0-3.25.53,153,153,0,0,1-17.48,1.14c-5.27.19-10.44.5-15.43,1.14-2.34.3-6.6-.24-7.76-1a1.28,1.28,0,0,0-1.09-.19c-1.6.31-3.43.34-5.1.54-1,.13-1.95.28-1.37.79.34.3-.22.49-1,.48-1.39,0-3.32.09-4-.33-.8-.51,1.12-.64,2.08-.87l.17,0c.29-.1.73-.18.55-.35s-.7-.15-1.07-.13c-1.89.1-3.84.08-5.63.36-1,.14-1.95.35-2,.75-.14.56-.78.35-1.55.19a13.83,13.83,0,0,0-4.74-.16l-3.63.43c.39-.44.57-.78.21-1.11a1.14,1.14,0,0,0-.83-.29,1,1,0,0,0-.84.28c-.13.16-.13.33-.22.49s.33.52-.47.56a1.79,1.79,0,0,1-1.43-.45c-.58-.79-1.2-.31-1.83,0l-.58.3a4.94,4.94,0,0,1-2.67.4c-1.25-.07-.72-.44-.85-.7s.09-.33-.46-.36-.73.15-.72.29c.09.8-1.37.68-2.76.59-3.57-.24-7.2-.32-10.81-.37-9.6-.14-19.18.19-28.77.27-3,0-6,.09-9-.12-1-.06-2.7-.16-2.56.4.28,1.14-1.34,1.11-3.55.9-.25,0-.54,0-.82,0-3.73,0-7.34.26-11,.51-2,.14-3.39,0-4.16-.67a1.62,1.62,0,0,0-1.25-.25c-2.83.16-5.68.28-8.5.48-1.25.09-1.87,0-1.79-.46s-.72-.44-1.64-.27a49.05,49.05,0,0,1-6.14.81c-4.86.33-9.77.41-14.7.44-1.63,0-2.8,0-2.9-.74,0-.31-.48-.62-1.51-.7a3.4,3.4,0,0,0-2.15.45,2.69,2.69,0,0,1-2.76.15,2,2,0,0,0-1.25-.12c-.45.11-.33.31-.31.48,0,.36.95.58,1.23.91h0a22.71,22.71,0,0,1-3.63-.21,17.21,17.21,0,0,0-6.28.1c-1.08.26-1.65,0-1.65-.38s0-.85,0-1.41a15.36,15.36,0,0,0-4.27,2.3c-.2.14-.12.46-.93.37-.61-.06-.57-.31-.57-.5,0-.42,0-.83,0-1.24s-.19-.54-1.3-.34a27.93,27.93,0,0,1-4,.31c-1.47.06-3.4,0-4.23.45-2.25,1.17-4.11.4-6.1,0a13.06,13.06,0,0,1-1.28-.36,3.84,3.84,0,0,0-2.81.12c-.52.21-.78.47-.83.73-.1.54-.8.6-2,.43-.5-.07-1.06-.1-1.59-.14-8.1-.62-16.19-1.12-24.2.12-.83.13-1.12,0-1.39-.24-.9-.72-2.66-.9-4.69-1-3-.08-5.87.14-8.76.31-1.25.08-2.52.33-2-.5.17-.26-.66-.51-1.31-.77-1.14.62-3.1.9-4.3,1.46a2.87,2.87,0,0,1-1.86.15,27.3,27.3,0,0,0-5.58-.27c-3.18.13-6.31.48-9.57.35-.93,0-2.31.1-2.53-.27s1.29-.3,2-.46a1.38,1.38,0,0,1,.2,0c.46-.08.92-.21.66-.39s-.8,0-1.17.06a48.79,48.79,0,0,1-9.27.8,106.84,106.84,0,0,0-12.44.37,3.5,3.5,0,0,1-2.39-.38c-.53-.78-2-.47-3.13-.4-1.44.1-2.86.1-4.3.12a60,60,0,0,0-6.64.4c-2.25.31-3.45,0-3.42-.89,0-.21.81-.49-.13-.64a5,5,0,0,0-1.91.19c-.66.12-1.28.28-1.92.42a6.67,6.67,0,0,1-3.19.16,2,2,0,0,0-1.86.35,11.28,11.28,0,0,0-.63,1.18c-.63-.06-.63-.22-.59-.36.25-.77-.67-.89-2.66-.74a55.41,55.41,0,0,1-6.31.17c-9.24-.37-18.45-.14-27.66.07a50,50,0,0,1-9.23-.43,8.69,8.69,0,0,0-3.59,0,2.59,2.59,0,0,1-1.33.06c-.5-.19.07-.36.35-.51a4,4,0,0,0,1.73-1.83c.15-.26.3-.65-.75-.74a2.17,2.17,0,0,0-1.87.55,13.27,13.27,0,0,1-1.24,1.07,3.84,3.84,0,0,1-2.52.21c-1-.18-.47-.44-.21-.69s.5-.45.72-.68.21-.4-.29-.54a3.28,3.28,0,0,0-1.67.13c-.7.17-.79.43-.8.71a3.14,3.14,0,0,0,.38,1.74c.09.15.21.37-.42.43a1.88,1.88,0,0,1-1-.23c-1.85-.85-2.15-1.82-1.71-2.84.15-.33.36-.67.58-1.09-2,.24-2.85.65-2.78,1.25s.29,1.4.39,2.1c0,.22.26.53-.76.58a2,2,0,0,1-1.63-.46c-.2-.2-.32-.42-.51-.63a2.58,2.58,0,0,0-1.59-.5c-2.31-.22-3.13.06-3.31,1.22-.06.36-.17.77-1.36.76s-.55-.45-.73-.7c-.32-.46-.27-1.16-1.72-1.21-2-.07-4.31-.4-6.18.3-1.18.45-2.6.82-4,1.25a1.3,1.3,0,0,0-.73-1.16c-.43-.26-1.39-.47-.76-.83a4.76,4.76,0,0,1,2.42-.09c.78,0,1.64.07,1.3-.38s-1.95-.74-3.76-.55c-1.27.14-3.32.11-2.19,1,.51.38.16.85-1.16.76a62.37,62.37,0,0,0-11.42.67,5.15,5.15,0,0,1-2.31,0c-.69-.26-.46-.59-.17-.9s.85-.79,1.42-1.31a24.49,24.49,0,0,1-10.14-.49c-.11.6.55.85,1.61,1a18.53,18.53,0,0,1,2.47.5c.65.21,1.1.56.35.85a3.7,3.7,0,0,1-2.19-.11,8.08,8.08,0,0,1-1.93-.93,2.12,2.12,0,0,0-1.61-.32c-.8.17-.39.44-.06.65.58.38,1.22.76,1.84,1.14.24.14.68.27.28.45a3,3,0,0,1-1.33.08c-3.69-.34-6.31-1.12-7.94-2.33-.25-.19-.25-.52-1-.49-2.46.07-4.88-.37-7.34,0-.49.06-1.25,0-1.13.31s.79.12,1.22.15a15,15,0,0,1,5.8,1.25c.51.27.89.59.17.88a4.79,4.79,0,0,1-2.44,0,12.11,12.11,0,0,1-2.61-.91,2.23,2.23,0,0,0-1.66-.24c-2.43.78-5.39.56-8.22.61-1.31,0-1.73-.18-1.62-.61s-.2-1.05-1.46-1.44c-1.64-.52-3-1.09-3.26-2-.91.25-.59.54-.63.79s-.41.72-1.33.94a2.4,2.4,0,0,1-.76,0c-.32,0-.24-.16-.1-.25.9-.55-.43-.38-1.1-.43-1.27-.1-1.45.51-2.18.5-3.05-.08-1.82.43-1.13.9s.35.75-1.33.79h-1.65c-3.6,0-4.39.33-3.72,1.59,0,0-.1.12-.16.18-3-.4-3.41-1-1.22-1.77,1-.35,1.94-.69,2.92-1,.73-.26.93-.57.31-.85a3.13,3.13,0,0,0-2.16.08,9.79,9.79,0,0,1-3.12.48,1.74,1.74,0,0,0-1.24.32,4.58,4.58,0,0,1-2,.58,65.25,65.25,0,0,1-10.13.39,2.24,2.24,0,0,1-1-.2c-1.14-.63.26-1.79,2.33-2,1.77-.15,3.55.09,5.3,0,1.07-.06,2.49.34,3,0s-1.37-.35-1.72-.67c-.19-.18-.58-.34-.3-.55a1.31,1.31,0,0,1,.85-.11c1.72.15,3.36.88,3.22,1.55-.07.34.38.38,1.06.38a7.29,7.29,0,0,0,3.83-.82,5.27,5.27,0,0,1,3.17-.92c.76,0,1.36,0,1.11.4-.54.83-.5.84,1.83.64.73-.06,1.47-.12,2.17-.22s1.22-.24,1-.48-1-.11-1.51-.06-.94.2-1.17-.07.14-.34.63-.4a33.25,33.25,0,0,1,3.39-.27,4.57,4.57,0,0,0,2-.31c.66-.47-1.52-1.7-3-1.72-1,0-1.93,0-2.88,0-.68,0-1.43-.11-1.35-.43s.85-.27,1.44-.27h2.68c.6,0,1.18-.07,1.11-.32-.17-.62.87-1.12,1.13-1.68.62-1.34-.19-1.61-3.17-1.5-2,.07-3.38-.13-3.48-1-2.5.79-5.2,1.34-7.17,2.32-.85-.67-.24-1.07.91-1.39.69-.2,1.47-.36,2.21-.53,1.8-.44,1.81-.86-.09-1.25a36,36,0,0,0-4.71-.49,30.81,30.81,0,0,1-5.67-.55c-.73-.2-1.57-.44-1.11-.77s1.34-.09,2.05,0a92.56,92.56,0,0,1,15.21,2.67,8.91,8.91,0,0,0,6-.48,7.1,7.1,0,0,0,1.21-.92,7.47,7.47,0,0,1,1.82-1c.47-.22,1.9-.2,1.57-.55s-1.6-.14-2.41-.24c-.1,0-.14-.06-.23-.11a14.73,14.73,0,0,1,4.16-1c1.4-.25,2.74-.55,3.12-1.09s1-.56,2.19-.53a12.85,12.85,0,0,0,5.24-.61,16.7,16.7,0,0,0,2.68-1.47,14.09,14.09,0,0,1,6.54-2.41c.89-.12.75-.28.41-.5-.87-.57-2.14-.36-3.4-.22-.48,0-1.14.21-1.36-.08s.53-.31,1-.36a37.51,37.51,0,0,1,3.86-.19c2.3,0,2.72-.19,2.78-1,.1-1.09-.41-2.19.77-3.24.34,0,.52.29.95.08a5.2,5.2,0,0,0,.67-.45c1.27-.87,2.39-1,4.74-.47a25.88,25.88,0,0,0,6.34.72,8.86,8.86,0,0,0,4.12-.8,22.08,22.08,0,0,1,3.31-1.75c1-.37,1.63-.46,2.31.1a25.59,25.59,0,0,0,2.24,1.48,3.83,3.83,0,0,0,3.41.26c2.08-.59,3.7-1.3,4.11-2.28.1-.22.1-.49.67-.58a2.73,2.73,0,0,1,1.62.35,27.92,27.92,0,0,1,4.19,2.15c.48-.53.94-1,1.26-1.4s1.1-.87,2.64-.84,2.57.33,2.93.87c.17.26.3.52.53.91a5.4,5.4,0,0,0,1.41-2.08,7,7,0,0,1,4.21-3.1,3.21,3.21,0,0,1,2.36,0,4,4,0,0,1,2.62,2.13,15.58,15.58,0,0,0,4-1.76c.88-.5,1.61-1,2.42-1.53.22-.14.31-.37.83-.38.68,0,.72.25,1,.41a30.77,30.77,0,0,0,6.62,3.93c.35.15.74.28,1.29.49,1-1.62,3.35-2.86,6.6-3.9a2.69,2.69,0,0,1,1.38-.25c.66.08.45.32.5.51.3,1.1.55,2.21.91,3.32.08.25.16.59.91.7a3.1,3.1,0,0,0,1.78-.38,8.57,8.57,0,0,0,2.7-1.37,2.07,2.07,0,0,1,2-.11,10,10,0,0,1,3,1.64,2.2,2.2,0,0,0,1.48.64c.77,0,.89-.39,1.2-.62,1.16-.88,2.24-1.77,3.37-2.66.69-.54,1.57-.62,3-.24a11.29,11.29,0,0,1,3.34,1.67,8.19,8.19,0,0,0,2-.93c1.45-.7,1.63-.71,3.26,0,.69.28,1.23.62,1.93,1,1.06-.85,2-1.67,3.11-2.46a2.31,2.31,0,0,1,2.85-.06c.65.37,1,.8,1.58,1.18.27.19,0,.53.7.56s.88-.32,1.24-.51c1-.53,2-1,3-1.58a2,2,0,0,1,2,0c.67.33,1.5.61,2.35,1,1.55-.82,1.87-1.76,2.88-2.6,1.56-1.3,2-1.37,5.24-.6a11.3,11.3,0,0,1,3.62,1.46,1.47,1.47,0,0,0,1.82,0c.83-.52,1-1.1,1.54-1.65s1.11-.75,2.73-.32a14.62,14.62,0,0,1,6.14,3.14l.58.44c1-.37,1.07-.82,1.48-1.21a7.25,7.25,0,0,1,2.83-2,4.62,4.62,0,0,1,3.75,0,18.09,18.09,0,0,1,4.72,2.8,1.8,1.8,0,0,0,1.92.21c1-.29,2.22-.51,3.06-.85a3.52,3.52,0,0,1,2.95,0,7.4,7.4,0,0,1,2.89,1.66c.33.38.72.76,1.22,1.29.94-.92,1.66-1.69,2.51-2.45a11.39,11.39,0,0,1,2-1.51,6.23,6.23,0,0,1,4.84-.19,11.54,11.54,0,0,1,4.71,3,2.94,2.94,0,0,0,1.2.79c3.06-1,3.09-2.7,6.54-3.68l1.9,1.82c1-.54,2.54-.77,3.58-1.19a1.58,1.58,0,0,1,1.55.09,15.56,15.56,0,0,1,2.45,1.68,25.2,25.2,0,0,0,6.52-2.91,2.67,2.67,0,0,1,2.06-.32,12.61,12.61,0,0,1,5.17,1.66,22.83,22.83,0,0,0,2.78-2.13c1.75-1.17,2-1.19,4.16-.1a15.89,15.89,0,0,1,1.55,1c.42.29.77.59,1.28,1a13.8,13.8,0,0,0,1.57-1.22c.44-.45,1-.41,1.95-.18a36.86,36.86,0,0,1,4.9,1.66c.84.32,1.17.33,1.66-.08s1.14-.67,1.62-1a1.93,1.93,0,0,1,2.27,0,7.81,7.81,0,0,1,2.57,2c.34.47.86.4,1.63.11,4-1.52,4.07-1.52,6.57.44a1.12,1.12,0,0,0,1.28.14l.59-.21c2-.69,2.07-.71,4.17,0a1.62,1.62,0,0,0,1.66-.1c.83-.56,1.76-1.09,2.69-1.63a5,5,0,0,1,2-.67c.8.86,1.59,1.7,2.37,2.55a7.24,7.24,0,0,0,1.85,1.38,8,8,0,0,0,7.23.21c1.75-.7,1.75-.7,3.23.1,2,1.06,2,1.06,4.41.11a7.28,7.28,0,0,0,1.45-.7c.91-.71,1.58-.45,2.43,0a37.84,37.84,0,0,1,3.87,2.65m-275.64,2.11a14.76,14.76,0,0,0,4.27,1,65.09,65.09,0,0,1,10.64,1.23c1.19.3,2.08,0,2.11-.49a1.56,1.56,0,0,1,.08-.8c.18-.33,1-.52,1.82-.44s.29.35.22.54c-.33.86.74,1.17,2.94.83,6.18-1,12.61-1.6,19.2-2.1,1.49-.11,2,0,1.71.54-.17.31,0,.63.4.92.68.51.39.82-1.27,1a5.11,5.11,0,0,0-3.55,1.29c-.34.36-.16.68,1.1.79a35.82,35.82,0,0,0,6.88.16,4.82,4.82,0,0,1,.54,0c.3.21-.84.29-.24.53a23.94,23.94,0,0,1,3.62-.14c1,0,1.11.24.51.39-2.1.51-.61.77.47,1.08a5,5,0,0,1,1.77,1,5,5,0,0,0,2,1.08c1,.25,2.12.89,3.42.38s-.71-.77-1.43-1.11c-.37-.18-1.61-.22-1.15-.49a4.71,4.71,0,0,1,2.26,0,3.41,3.41,0,0,1,1.39.42c.94.77,2.39.57,3.85.26a12.19,12.19,0,0,1,2.5-.6c2,.06,3.85-.11,5.77-.22s3.16-.12,3.67-.83h0c1.74.09,3.28-.24,4.95-.29a4.73,4.73,0,0,1-2.44.69c-1.84.22-2,.36-.73.88.21.08.48.15.86.27-1.43.14-2.55-.18-3.76-.09-.41,0-.89,0-1,.18s.38.18.52.27c1.32.87,3.2.81,5.34.45a6.15,6.15,0,0,1,2.35,0,1.69,1.69,0,0,0,1.09,0c.28-.15,0-.28-.16-.41-.37-.32-1.36-.4-1.89-.65-.28-.14-.61-.29-.46-.47s.78-.06,1.19-.07c.94,0,2.34-.67,2.1-1s-.62-.14-1-.13l-2,.12c1-.49,2.93-.6,3.72-1.17l.15,0-.16,0a46.87,46.87,0,0,0-8.2.5,35.2,35.2,0,0,1-5,.77c-5.4.36-4.26.56-5.84-1.3-.26-.29-.73-.66,0-.88a8.3,8.3,0,0,1,3,0,17.72,17.72,0,0,1,4.62,1.18,2.2,2.2,0,0,0,2.18,0,10.9,10.9,0,0,1,4.2-1q2.81-.23,5.55-.52c.94-.09,1.46-.37,1.55-.7.12-.48-1,.06-1.26-.18a4.22,4.22,0,0,0-.66-.28,4.71,4.71,0,0,0-3.62-.18,18.34,18.34,0,0,1-6.77.27,13.08,13.08,0,0,1,1.39-.52,10.43,10.43,0,0,0,5.28-2.56,101.25,101.25,0,0,0,15.6.76c-.13.6,1,1.06,1.41,1.71a6.29,6.29,0,0,0,1.45-1.73,22.37,22.37,0,0,1,3.79-.2c4.57-.25,8.7-1,13-1.47,3.69-.41,7.39-.85,10.83-1.51.07.94,1.34,1.71,2.63,2.56,1.17-.56,1.45-1.2,2.29-1.73a3,3,0,0,1,1.8-.75c1.07-.06,1,.43,1.53.66,1.7.81,3.36,1.63,5.25,2.55a2.73,2.73,0,0,1,4.15-2.44,6.78,6.78,0,0,1,2.77,3.08,9.75,9.75,0,0,0,2.37-1.45,7.84,7.84,0,0,1,2-1.17,10.3,10.3,0,0,1,6.24,0c.34.12.66.25.94.38,2.66,1.31,2.82,1.32,5.93.08a21.84,21.84,0,0,0,2.11-1.07c1,0,1.35.2,1.59.53a26.88,26.88,0,0,1,3.12,5.05c.79,1.84,1.94,3.75.27,5.55-1.25,1.34-1.39,2.37,1.52,3.4,1.17.42,1,.92-.66,1.18-1.07.17-.93.36-.42.6a5.85,5.85,0,0,1,2.29,1.94c2.42,3.28,1.83,6.6,1.09,9.91-.13.59.08,1.25-1.05,1.84-1.76-.83-.41-1.66-.22-2.48a19.86,19.86,0,0,0-3.25.53,153.22,153.22,0,0,1-17.49,1.14c-5.27.19-10.44.5-15.43,1.14-2.34.3-6.59-.24-7.75-1a1.29,1.29,0,0,0-1.09-.19c-1.6.31-3.43.34-5.11.54-1,.13-1.95.28-1.37.79.35.3-.21.49-1,.48-1.4,0-3.32.09-4-.33-.79-.51,1.12-.64,2.09-.87l.16,0c.29-.1.73-.18.56-.35s-.7-.15-1.08-.13c-1.89.1-3.84.08-5.63.36-1,.14-1.94.35-2,.75-.15.56-.78.35-1.55.19a13.85,13.85,0,0,0-4.74-.16l-3.64.43c.39-.44.57-.78.21-1.11a1.12,1.12,0,0,0-.83-.29,1,1,0,0,0-.83.28c-.14.16-.14.33-.22.49s.32.52-.48.56a1.8,1.8,0,0,1-1.43-.45c-.58-.79-1.2-.31-1.82,0l-.59.3a4.89,4.89,0,0,1-2.66.4c-1.25-.07-.72-.44-.86-.7s.09-.33-.46-.36-.73.15-.71.29c.09.8-1.37.68-2.77.59-3.57-.24-7.19-.32-10.81-.37-9.6-.14-19.17.19-28.76.27-3,0-6,.09-9-.12-1-.06-2.69-.16-2.56.4.28,1.14-1.33,1.11-3.54.9-.26,0-.55,0-.82,0-3.73,0-7.35.26-11,.51-1.95.14-3.4,0-4.16-.67a1.65,1.65,0,0,0-1.26-.25c-2.83.16-5.68.28-8.49.48-1.25.09-1.87,0-1.79-.46s-.72-.44-1.64-.27a49.3,49.3,0,0,1-6.14.81c-4.87.33-9.78.41-14.71.44-1.62,0-2.79,0-2.89-.74,0-.31-.49-.62-1.52-.7a3.35,3.35,0,0,0-2.14.45,2.71,2.71,0,0,1-2.77.15,2,2,0,0,0-1.25-.12c-.44.11-.32.31-.3.48,0,.36.94.58,1.22.91h0a22.52,22.52,0,0,1-3.62-.21,17.26,17.26,0,0,0-6.29.1c-1.08.26-1.65,0-1.64-.38v-1.41a15.14,15.14,0,0,0-4.26,2.3c-.2.14-.12.46-.94.37-.61-.06-.57-.31-.57-.5,0-.42,0-.83,0-1.24s-.19-.54-1.29-.34a28.16,28.16,0,0,1-4,.31c-1.48.06-3.41,0-4.24.45-2.25,1.17-4.11.4-6.1,0a12.11,12.11,0,0,1-1.27-.36,3.87,3.87,0,0,0-2.82.12c-.52.21-.78.47-.82.73-.1.54-.81.6-2,.43-.51-.07-1.06-.1-1.6-.14-8.09-.62-16.19-1.12-24.2.12-.83.13-1.12,0-1.39-.24-.9-.72-2.66-.9-4.69-1-3-.08-5.86.14-8.76.31-1.25.08-2.52.33-2-.5.16-.26-.67-.51-1.32-.77-1.13.62-3.1.9-4.29,1.46a2.87,2.87,0,0,1-1.86.15,27.34,27.34,0,0,0-5.58-.27c-3.19.13-6.32.48-9.58.35-.92,0-2.3.1-2.52-.27s1.28-.3,2-.46a1.08,1.08,0,0,1,.19,0c.47-.08.93-.21.66-.39s-.8,0-1.16.06a48.9,48.9,0,0,1-9.28.8,107,107,0,0,0-12.44.37,3.47,3.47,0,0,1-2.38-.38c-.54-.78-2-.47-3.14-.4-1.43.1-2.86.1-4.29.12a60.14,60.14,0,0,0-6.65.4c-2.24.31-3.45,0-3.42-.89,0-.21.81-.49-.12-.64a5,5,0,0,0-1.91.19c-.67.12-1.29.28-1.93.42a6.63,6.63,0,0,1-3.18.16,2,2,0,0,0-1.86.35,11.4,11.4,0,0,0-.64,1.18c-.63-.06-.63-.22-.59-.36.26-.77-.67-.89-2.66-.74a55.28,55.28,0,0,1-6.31.17c-9.24-.37-18.44-.14-27.66.07a50,50,0,0,1-9.23-.43,8.64,8.64,0,0,0-3.58,0,2.59,2.59,0,0,1-1.33.06c-.51-.19.07-.36.34-.51a3.94,3.94,0,0,0,1.73-1.83c.15-.26.31-.65-.75-.74a2.18,2.18,0,0,0-1.87.55,12.1,12.1,0,0,1-1.24,1.07,3.8,3.8,0,0,1-2.51.21c-1-.18-.48-.44-.22-.69s.5-.45.72-.68.22-.4-.28-.54a3.27,3.27,0,0,0-1.67.13c-.7.17-.79.43-.8.71a3.05,3.05,0,0,0,.38,1.74c.08.15.21.37-.43.43a1.84,1.84,0,0,1-1-.23c-1.86-.85-2.15-1.82-1.71-2.84.14-.33.35-.67.58-1.09-2,.24-2.85.65-2.79,1.25s.3,1.4.39,2.1c0,.22.27.53-.76.58a2,2,0,0,1-1.63-.46c-.19-.2-.32-.42-.5-.63a2.61,2.61,0,0,0-1.6-.5c-2.31-.22-3.12.06-3.31,1.22-.06.36-.17.77-1.35.76s-.56-.45-.73-.7c-.32-.46-.27-1.16-1.73-1.21-2-.07-4.31-.4-6.17.3-1.18.45-2.6.82-4,1.25a1.32,1.32,0,0,0-.73-1.16c-.44-.26-1.4-.47-.77-.83a4.76,4.76,0,0,1,2.42-.09c.78,0,1.64.07,1.3-.38s-1.95-.74-3.75-.55c-1.28.14-3.33.11-2.2,1,.51.38.17.85-1.16.76a62.37,62.37,0,0,0-11.42.67,5.15,5.15,0,0,1-2.31,0c-.69-.26-.46-.59-.16-.9s.85-.79,1.42-1.31A24.48,24.48,0,0,1-41.6,1351c-.12.6.55.85,1.61,1a19.21,19.21,0,0,1,2.47.5c.64.21,1.1.56.34.85a3.66,3.66,0,0,1-2.18-.11,8.17,8.17,0,0,1-1.94-.93,2.09,2.09,0,0,0-1.6-.32c-.8.17-.39.44-.07.65.59.38,1.22.76,1.85,1.14.23.14.68.27.27.45a3,3,0,0,1-1.32.08c-3.69-.34-6.32-1.12-7.95-2.33-.25-.19-.24-.52-1-.49-2.45.07-4.87-.37-7.33,0-.49.06-1.26,0-1.14.31s.79.12,1.23.15a15,15,0,0,1,5.8,1.25c.5.27.89.59.16.88a4.79,4.79,0,0,1-2.44,0,12.11,12.11,0,0,1-2.61-.91,2.21,2.21,0,0,0-1.65-.24c-2.44.78-5.4.56-8.23.61-1.3,0-1.72-.18-1.61-.61s-.2-1.05-1.46-1.44c-1.65-.52-3.06-1.09-3.27-2-.9.25-.58.54-.63.79s-.41.72-1.33.94a2.39,2.39,0,0,1-.76,0c-.32,0-.23-.16-.09-.25.89-.55-.43-.38-1.11-.43-1.27-.1-1.44.51-2.18.5-3-.08-1.82.43-1.13.9s.36.75-1.33.79H-83.9c-3.6,0-4.39.33-3.72,1.59,0,0-.1.12-.15.18-3-.4-3.41-1-1.22-1.77.95-.35,1.94-.69,2.91-1,.74-.26.94-.57.31-.85a3.1,3.1,0,0,0-2.15.08,9.88,9.88,0,0,1-3.12.48,1.79,1.79,0,0,0-1.25.32,4.54,4.54,0,0,1-2,.58,65.25,65.25,0,0,1-10.13.39,2.27,2.27,0,0,1-1-.2c-1.13-.63.26-1.79,2.33-2,1.78-.15,3.55.09,5.31,0,1.06-.06,2.48.34,3,0s-1.38-.35-1.73-.67c-.19-.18-.58-.34-.3-.55a1.33,1.33,0,0,1,.86-.11c1.72.15,3.35.88,3.21,1.55-.07.34.38.38,1.07.38a7.34,7.34,0,0,0,3.83-.82,5.21,5.21,0,0,1,3.16-.92c.76,0,1.36,0,1.11.4-.54.83-.49.84,1.83.64.73-.06,1.48-.12,2.17-.22s1.23-.24,1-.48-1-.11-1.52-.06-.93.2-1.17-.07.15-.34.63-.4a33.22,33.22,0,0,1,3.4-.27,4.49,4.49,0,0,0,2-.31c.66-.47-1.52-1.7-3-1.72-1,0-1.93,0-2.88,0-.67,0-1.43-.11-1.35-.43s.85-.27,1.44-.27h2.68c.61,0,1.18-.07,1.11-.32-.17-.62.88-1.12,1.14-1.68.61-1.34-.2-1.61-3.18-1.5-1.94.07-3.37-.13-3.47-1a55.67,55.67,0,0,0-7.18,2.32c-.84-.67-.23-1.07.91-1.39.69-.2,1.48-.36,2.21-.53,1.81-.44,1.81-.86-.09-1.25a35.68,35.68,0,0,0-4.7-.49,30.72,30.72,0,0,1-5.67-.55c-.74-.2-1.58-.44-1.12-.77s1.34-.09,2.06,0a92.62,92.62,0,0,1,15.2,2.67,8.94,8.94,0,0,0,6-.48,7,7,0,0,0,1.2-.92,7.66,7.66,0,0,1,1.82-1c.47-.22,1.9-.2,1.57-.55s-1.6-.14-2.41-.24a.51.51,0,0,1-.22-.11,14.56,14.56,0,0,1,4.16-1c1.39-.25,2.74-.55,3.11-1.09s1-.56,2.19-.53a12.93,12.93,0,0,0,5.25-.61,16.16,16.16,0,0,0,2.67-1.47,14.09,14.09,0,0,1,6.54-2.41c.89-.12.75-.28.42-.5-.88-.57-2.15-.36-3.41-.22-.48,0-1.13.21-1.35-.08s.53-.31,1-.36a37.32,37.32,0,0,1,3.85-.19c2.3,0,2.72-.19,2.79-1,.09-1.09-.42-2.19.76-3.24.34,0,.52.29,1,.08a6,6,0,0,0,.67-.45c1.27-.87,2.38-1,4.73-.47a25.9,25.9,0,0,0,6.35.72,8.92,8.92,0,0,0,4.12-.8A21.6,21.6,0,0,1-25,1323c1-.37,1.62-.46,2.31.1s1.48,1,2.23,1.48a3.85,3.85,0,0,0,3.42.26c2.07-.59,3.7-1.3,4.11-2.28.09-.22.09-.49.66-.58a2.73,2.73,0,0,1,1.62.35,27.45,27.45,0,0,1,4.19,2.15c.49-.53.94-1,1.27-1.4s1.1-.87,2.63-.84,2.57.33,2.94.87c.17.26.3.52.52.91a5.29,5.29,0,0,0,1.41-2.08,7.06,7.06,0,0,1,4.21-3.1,3.21,3.21,0,0,1,2.36,0A4,4,0,0,1,11.5,1321a15.83,15.83,0,0,0,4-1.76c.87-.5,1.61-1,2.41-1.53.23-.14.31-.37.83-.38.68,0,.72.25.95.41a30.62,30.62,0,0,0,6.63,3.93c.35.15.73.28,1.28.49,1-1.62,3.36-2.86,6.61-3.9a2.63,2.63,0,0,1,1.37-.25c.67.08.46.32.51.51.29,1.1.55,2.21.9,3.32.09.25.16.59.91.7a3.08,3.08,0,0,0,1.78-.38,8.52,8.52,0,0,0,2.71-1.37,2.05,2.05,0,0,1,2-.11,9.85,9.85,0,0,1,3,1.64,2.2,2.2,0,0,0,1.48.64c.77,0,.9-.39,1.2-.62,1.16-.88,2.25-1.77,3.37-2.66.7-.54,1.58-.62,3-.24a11.35,11.35,0,0,1,3.35,1.67,8.55,8.55,0,0,0,2-.93c1.45-.7,1.63-.71,3.25,0,.7.28,1.24.62,1.94,1,1.05-.85,2-1.67,3.1-2.46a2.32,2.32,0,0,1,2.86-.06c.64.37,1,.8,1.57,1.18.28.19,0,.53.71.56s.87-.32,1.24-.51c1-.53,2-1,3-1.58a1.94,1.94,0,0,1,2,0c.67.33,1.5.61,2.35,1,1.56-.82,1.87-1.76,2.88-2.6,1.57-1.3,2-1.37,5.24-.6a11.47,11.47,0,0,1,3.63,1.46,1.47,1.47,0,0,0,1.82,0,6.64,6.64,0,0,0,1.53-1.65c.64-.69,1.11-.75,2.74-.32a14.69,14.69,0,0,1,6.14,3.14c.15.13.33.26.58.44,1-.37,1.06-.82,1.48-1.21a7.1,7.1,0,0,1,2.83-2,4.6,4.6,0,0,1,3.74,0,18.09,18.09,0,0,1,4.72,2.8,1.81,1.81,0,0,0,1.93.21c1-.29,2.22-.51,3-.85a3.55,3.55,0,0,1,3,0,7.43,7.43,0,0,1,2.88,1.66c.34.38.72.76,1.22,1.29.94-.92,1.67-1.69,2.52-2.45a11.39,11.39,0,0,1,2-1.51,6.21,6.21,0,0,1,4.83-.19,11.65,11.65,0,0,1,4.72,3,2.89,2.89,0,0,0,1.19.79c3.06-1,3.1-2.7,6.55-3.68l1.9,1.82c1-.54,2.53-.77,3.58-1.19a1.56,1.56,0,0,1,1.54.09,15.65,15.65,0,0,1,2.46,1.68,25.27,25.27,0,0,0,6.51-2.91,2.68,2.68,0,0,1,2.06-.32,12.61,12.61,0,0,1,5.17,1.66,23,23,0,0,0,2.79-2.13c1.74-1.17,2-1.19,4.16-.1a14.59,14.59,0,0,1,1.54,1c.43.29.77.59,1.29,1a13.8,13.8,0,0,0,1.57-1.22c.43-.45,1-.41,2-.18a37.2,37.2,0,0,1,4.89,1.66c.84.32,1.18.33,1.67-.08s1.13-.67,1.61-1a2,2,0,0,1,2.28,0,7.81,7.81,0,0,1,2.57,2c.33.47.86.4,1.62.11,4-1.52,4.07-1.52,6.58.44a1.1,1.1,0,0,0,1.27.14l.59-.21c2-.69,2.07-.71,4.17,0a1.62,1.62,0,0,0,1.66-.1c.83-.56,1.77-1.09,2.69-1.63a5.05,5.05,0,0,1,2-.67c.81.86,1.6,1.7,2.38,2.55a7.07,7.07,0,0,0,1.85,1.38,7.94,7.94,0,0,0,7.22.21c1.75-.7,1.75-.7,3.23.1,2,1.06,2,1.06,4.41.11a7,7,0,0,0,1.45-.7,1.89,1.89,0,0,1,2.43,0A36.77,36.77,0,0,1,252,1323m1765.88-3.19c2.88.46,6.72,0,8.09-1,.33-.23.56-.48,0-.67a18.45,18.45,0,0,0-6.18-1,2.21,2.21,0,0,0-2.07.92c-.45.76.92.91,2.7,1.16l-2.58.57"/><path d="M585,980.22h-1.66a11.73,11.73,0,0,0-1.73-4.92,5.64,5.64,0,0,0-3.86-2l-.46-1.33-.4-1.66h-.71a3.8,3.8,0,0,1-1.12-2.77,3.86,3.86,0,0,1,.88-2.51,17.08,17.08,0,0,0,6.75-1.89,3.31,3.31,0,0,0-1.5-1.06L583,941.24a5.29,5.29,0,0,0,2.28-2,14.73,14.73,0,0,0-7.19-3.2v-.06c0-2.9-1.41-5.34-3.36-6.17a1.44,1.44,0,0,0-.34-.8l0-.22a1.18,1.18,0,0,0-.13-1.28l0-.36a.81.81,0,0,0,.06-.31,1,1,0,0,0-.14-.49l-.81-7.74-.8,7.67a1,1,0,0,0-.18.56,1,1,0,0,0,.08.39l0,.23a1.23,1.23,0,0,0-.3.79,1.18,1.18,0,0,0,.16.59v.12a1.42,1.42,0,0,0-.38.87c-1.92.83-3.31,3.24-3.33,6.1a16.62,16.62,0,0,0-8.09,3.31,5.29,5.29,0,0,0,2.28,2l1.82,20.85a3.38,3.38,0,0,0-1.5,1.06,17.08,17.08,0,0,0,6.75,1.89,4,4,0,0,1-.23,5.28H489.67a3.8,3.8,0,0,1-1.12-2.77,3.86,3.86,0,0,1,.88-2.51,17.08,17.08,0,0,0,6.75-1.89,3.31,3.31,0,0,0-1.5-1.06l1.82-20.85a5.22,5.22,0,0,0,2.28-2,16.57,16.57,0,0,0-8.09-3.31c0-2.86-1.41-5.27-3.32-6.1a1.43,1.43,0,0,0-.39-.87v-.12a1.18,1.18,0,0,0,.16-.59,1.23,1.23,0,0,0-.3-.79l0-.23a1,1,0,0,0,.08-.39.91.91,0,0,0-.18-.56l-.8-7.67-.81,7.74a1,1,0,0,0-.14.49,1.07,1.07,0,0,0,.06.31l0,.36a1.18,1.18,0,0,0-.13,1.28l0,.22a1.46,1.46,0,0,0-.35.8c-1.94.83-3.36,3.27-3.36,6.17V936a14.73,14.73,0,0,0-7.19,3.2,5.29,5.29,0,0,0,2.28,2L478,962.09a3.38,3.38,0,0,0-1.5,1.06,17.08,17.08,0,0,0,6.75,1.89,3.87,3.87,0,0,1,.89,2.51,3.8,3.8,0,0,1-1.12,2.77h-.71l-.4,1.66-.47,1.33a5.64,5.64,0,0,0-3.86,2,11.73,11.73,0,0,0-1.73,4.92h-1.66s-1.28,1.82-.87,3.39c.58,2.2,1.4,2.3,2.9,2.46a13.36,13.36,0,0,0,2.36-.06s.68-1.49,1.92-1.4A2.85,2.85,0,0,1,483,986c.82,1.18,1,1.85,1.28,1.65a4.42,4.42,0,0,0,1.6-1.33c.66-.93,1.33.46,1.46.93s1.13,1.07,1.4.43,0-1.56.82-1a23.81,23.81,0,0,0,2.84,1.31,32.71,32.71,0,0,0,3.46,1.28,33.17,33.17,0,0,0,3.9.21l2.56.22a3.86,3.86,0,0,0,3.06-1.16c.8-1,.83-1.48.8-1.66h15.27l-1.72,237.55H519L516.85,1330h-7.64v9.54H550V1330h-7.64l-2.11-105.62h-.8l-1.73-237.55H553c0,.18,0,.66.81,1.66a3.84,3.84,0,0,0,3.05,1.16l2.57-.22a32.93,32.93,0,0,0,3.89-.21,32.71,32.71,0,0,0,3.46-1.28,23.81,23.81,0,0,0,2.84-1.31c.84-.53.56.4.82,1s1.27,0,1.4-.43.8-1.86,1.46-.93a4.42,4.42,0,0,0,1.6,1.33c.27.2.47-.47,1.29-1.65a2.82,2.82,0,0,1,2.51-1.4c1.24-.09,1.92,1.4,1.92,1.4a13.44,13.44,0,0,0,2.37.06c1.49-.16,2.31-.26,2.89-2.46.41-1.57-.87-3.39-.87-3.39m-94-37.44,4.54,1.18-1.7,19.24-3.79-.57ZM478.85,963.2,477.16,944l4.37-1.18,1.12,19.85Zm5.07-1-.82-19.88h6.5l-1,19.88Zm93.77-19.47,4.36,1.18-1.69,19.24-3.79-.57ZM565.36,963.2,563.67,944l4.53-1.18,1,19.85Zm5.22-1-1-19.88h6.5l-.82,19.88Z"/><path d="M1670.91,981.46h-1.67a11.71,11.71,0,0,0-1.73-4.91,5.65,5.65,0,0,0-3.85-2l-.47-1.32-.4-1.67h-.71a3.76,3.76,0,0,1-1.12-2.76,3.91,3.91,0,0,1,.88-2.52,17.09,17.09,0,0,0,6.76-1.89,3.37,3.37,0,0,0-1.51-1.06l1.83-20.84a5.29,5.29,0,0,0,2.27-2,14.64,14.64,0,0,0-7.19-3.21v0c0-2.9-1.41-5.35-3.36-6.17a1.47,1.47,0,0,0-.34-.81l0-.22a1.19,1.19,0,0,0,.13-.53,1.17,1.17,0,0,0-.27-.75l0-.35a1.06,1.06,0,0,0,.05-.31,1,1,0,0,0-.14-.5l-.81-7.73-.8,7.67a1,1,0,0,0-.18.56,1,1,0,0,0,.08.38l0,.24a1.16,1.16,0,0,0-.3.79,1.25,1.25,0,0,0,.15.58v.13a1.48,1.48,0,0,0-.38.86c-1.92.83-3.31,3.24-3.33,6.1a16.52,16.52,0,0,0-8.08,3.32,5.29,5.29,0,0,0,2.27,2l1.83,20.84a3.37,3.37,0,0,0-1.51,1.06,17.08,17.08,0,0,0,6.75,1.89,3.86,3.86,0,0,1,.89,2.52,3.76,3.76,0,0,1-1.12,2.76h-79.88a3.76,3.76,0,0,1-1.12-2.76,3.86,3.86,0,0,1,.89-2.52,17.08,17.08,0,0,0,6.75-1.89,3.37,3.37,0,0,0-1.51-1.06l1.83-20.84a5.29,5.29,0,0,0,2.27-2,16.52,16.52,0,0,0-8.08-3.32c0-2.86-1.41-5.27-3.33-6.1a1.48,1.48,0,0,0-.38-.86V930a1.25,1.25,0,0,0,.15-.58,1.16,1.16,0,0,0-.3-.79l0-.24a1,1,0,0,0,.08-.38,1,1,0,0,0-.18-.56l-.8-7.67-.81,7.73a1,1,0,0,0-.14.5,1.06,1.06,0,0,0,.05.31l0,.35a1.17,1.17,0,0,0-.27.75,1.19,1.19,0,0,0,.13.53l0,.22a1.47,1.47,0,0,0-.34.81c-2,.82-3.36,3.27-3.36,6.17v0a14.64,14.64,0,0,0-7.19,3.21,5.29,5.29,0,0,0,2.27,2l1.83,20.84a3.37,3.37,0,0,0-1.51,1.06,17.17,17.17,0,0,0,6.76,1.89,3.91,3.91,0,0,1,.88,2.52,3.76,3.76,0,0,1-1.12,2.76h-.71l-.4,1.67-.47,1.32a5.65,5.65,0,0,0-3.85,2,11.71,11.71,0,0,0-1.73,4.91h-1.67s-1.28,1.83-.86,3.39c.58,2.21,1.39,2.31,2.89,2.46a12.77,12.77,0,0,0,2.36,0s.69-1.5,1.93-1.4a2.81,2.81,0,0,1,2.51,1.4c.82,1.18,1,1.84,1.29,1.64a4.42,4.42,0,0,0,1.59-1.33c.67-.93,1.33.47,1.47.93s1.13,1.07,1.39.44,0-1.57.83-1a23.24,23.24,0,0,0,2.84,1.3,31.39,31.39,0,0,0,3.46,1.29,34.68,34.68,0,0,0,3.89.2l2.57.22a3.85,3.85,0,0,0,3-1.15c.8-1,.84-1.49.81-1.66h15.26l-1.72,237.54h-.81l-2.11,105.62h-7.64v9.55h40.8v-9.55h-7.64l-2.11-105.62h-.81l-1.72-237.54h15.26c0,.17,0,.65.81,1.66a3.85,3.85,0,0,0,3,1.15l2.57-.22a34.94,34.94,0,0,0,3.9-.2,32.22,32.22,0,0,0,3.46-1.29,23.32,23.32,0,0,0,2.83-1.3c.84-.54.56.39.83,1s1.26,0,1.39-.44.8-1.86,1.47-.93a4.42,4.42,0,0,0,1.59,1.33c.27.2.47-.46,1.29-1.64a2.81,2.81,0,0,1,2.51-1.4c1.25-.1,1.93,1.4,1.93,1.4a12.77,12.77,0,0,0,2.36,0c1.5-.15,2.31-.25,2.89-2.46.42-1.56-.86-3.39-.86-3.39m-94-39.32,4.54,1.18-1.69,19.23L1576,962Zm-12.16,20.41-1.69-19.23,4.37-1.18,1.12,19.84Zm5.07-.95-.82-19.88h6.51l-1,19.88Zm93.77-19.46,4.37,1.18-1.69,19.23-3.8-.57Zm-12.33,20.41-1.69-19.23,4.54-1.18,1,19.84Zm5.23-.95-1-19.88H1662l-.82,19.88Z"/><polygon points="1246.46 1313.24 1240.38 1313.24 1236.48 1313.24 1233 1311.08 1229.97 1306.31 1229.97 1304.15 1229.97 1301.55 1229.97 1298.51 1233.44 1295.48 1233.87 1291.15 1229.97 1288.55 1224.76 1284.22 1219.98 1284.22 1215.64 1284.22 1213.04 1291.15 1211.3 1297.65 1209.13 1301.55 1206.53 1301.98 1203.93 1298.08 1196.98 1296.35 1190.04 1296.78 1186.57 1299.81 1182.66 1305.88 1179.19 1311.29 1179.19 1314.54 1171.81 1308.91 1164.43 1301.98 1164.43 1260.39 1168.34 1257.79 1173.11 1255.19 1172.68 1252.16 1172.97 1250.95 1153.65 1250.95 1123.71 1250.95 1122.62 1243.15 1116.98 1243.15 1114.81 1237.96 1117.63 1235.14 1120.89 1229.94 1125.23 1223.88 1126.1 1219.33 1124.14 1213.69 1120.67 1208.06 1114.81 1203.51 1110.9 1200.91 1109.6 1196.37 1105.48 1196.37 1103.63 1192.68 1101.36 1189.43 1100.06 1186.62 1098.32 1186.62 1096.58 1186.62 1095.28 1189.43 1093.01 1192.68 1091.16 1196.37 1087.04 1196.37 1085.73 1200.91 1081.83 1203.51 1075.97 1208.06 1072.5 1213.69 1070.54 1219.33 1071.41 1223.88 1075.75 1229.94 1079.01 1235.14 1081.83 1237.96 1079.66 1243.15 1074.02 1243.15 1072.93 1250.95 1042.98 1250.95 1023.67 1250.95 1023.96 1252.16 1023.53 1255.19 1028.3 1257.79 1032.21 1260.39 1032.21 1301.98 1024.83 1308.91 1017.45 1314.54 1017.45 1311.29 1013.98 1305.88 1010.07 1299.81 1006.6 1296.78 999.66 1296.35 992.71 1298.08 990.11 1301.98 987.5 1301.55 985.34 1297.65 983.6 1291.15 981 1284.22 976.66 1284.22 971.88 1284.22 966.67 1288.55 962.77 1291.15 963.2 1295.48 966.67 1298.51 966.67 1301.55 966.67 1304.15 966.67 1306.31 963.63 1311.08 960.16 1313.24 956.26 1313.24 950.18 1313.24 946.71 1320.61 948.45 1323.64 948.45 1338.37 1098.32 1338.37 1248.19 1338.37 1248.19 1323.64 1249.93 1320.61 1246.46 1313.24"/><path d="M847.59,1321.15l-5.41-2.34-2.46-6.43-.5-1.78-1-4.81-2.21-5-2.1-3.13-2.71-3.24-1.71-1-3.81-1.46v-1.56l-.5-2.35-1.4-1.23-1.71-.33V1284l-.6-2.34-.5-1.23-.9-.11-2.41.11-2,1.45-1.71,2v2.68l-1.7,1-2.81-1-2.61-.11v-5l-.6-1.11-19.75-2v-1.9l-3.31-.34-4.31-.33v-2.68l-1-.9-1.2-1.23-1-.67-1.3-.67h-1.91l-1.2-.67-1-3.57-1-4.47-.3-5.47v-9.72l-.3-2.9,1-.67.8-2.8-.3-4,.41-1.56-.21-3.58-1.2-1.78-.6-3.35-.7-2.24.1-1.23h1.3l1.1-.33.91-2.68.8-.45-.2-1.23-.3-.89-1.91-.34,1.71-.56,2.5-1.11.51-2.8v-2.68l-.61-2.34-.9-.34-2.1-.89-2.31-.56-1-1.34-1.11-.56-2.3-.56-.7-1-1.11-1.12-1.2-.22v-1l-.8-.56H758l-.4-.89-.9-.11-1.11,1-1.4.56-2.51,1.46-3.1,2.56-3,4.14-2.41,6-2.41,5.25-2.2,6.59-.8,3.8-2.51,1.89.5-1,1.3-3.35-.3-2.79-.5-2.46-1.6-1.79L733,1218l-3.21.56-2.3,2.68-1.41,3.46-1.4,3.69-1.1,1.11-3.21,1.68-2.61,2.57-.5-39.32-.8-1.23-2.11-.33v-1.23l2.41-.9.3-1.89-2.41-.9v-1.56l3.11-.67-.6-38v-16.2l-8.82-1.67-.4-42.67-.1-8.15-.61-3.35.1-2.35,1-.11-.6-1.68-1.21-2.12-.6-2.12-1.1-1.79.3-2.79v-1.9l1-2.12-.7-1.57-1.1-1.11,1.4-.67,1.9-2.68,1.41-3.24.9-2.46.1-4.13-.8-4L708,1036l-1.21-1.79-2.4-3.12-2.51-1.57-.3-1.11,2-1.23,1.11.22,2.2.89,1.91.45,2.3-.11,1.11.45.9,2.12,1.6,1.79,2.31-1.12,2.31-.34,1.7-1.67,1.5.56,2.41-.56,1.71-1.12,1.9-.33,4,.44,2.11-.11.9-1.56.1-2.57-.7-.78-1.61-.67-2.9-2.46-2.21-1.79-1.3-2.79-.1-2.79,1-1.26,1.51,1,3.16-.09,1.2-.42-.08-1.34,1.58-.33,3.46.67,1.43-1.09,1-1.59,1.05-4.61-1.5.34-2.41-1.09-.9-1.34-1.65.16-1.73-.92v-4l-1.51-1.68.45-.16V994.1l-1.2-2.51-1.2-2V987.4l-2.11-2.35-2.11-2L724,982l1.5-1,2.86-2.34.75-3.52-2.25-.51-9.18-3.35-6.32,1.85-2.4-1.34-3,.5-2.71.17,1.36-.84v-3.86l-.91-3.35-2.1-5-2.11-4.36-3.16-3.35-3.61-2h-4.21L684,952.05l-3.76,3.85-2.56,4.19-2.4,5.86v4l-5.12,1.34-5.26-2.68h-2.41l-5.56,1.17-5.12,2.35v3l2.26,3.68-1.35,1-2.26,3-1,2.68-2.26,3.36.6,1.5-.6.84-.45,3.85-.6,1.18-3.46,2.18-5.42,2.34,1.06,4.36,4.21,2.51,4.36,1.84-.45,1.68-.6,1.84-.15,2.35-4.67,3-3.61,1.51v1.84l1.66,2.85,3.61,1.34h3.61l4.36,1.18.6,1.17,2,2,2.7.17,3.31-1.68,1.81-1.17,2.25,1.84,1.36-1.34,1.5-1h2.26l3.16,1,1.35-2v-2.18l-1.5-1.67-2.11-2.52-.9-3H670l5.42,2.34L674,1020.4l.46,3-1.06,1.84,1.06,1.68,1.8,1v1.34l-1.2.67-2.41,1.85-2.56,3-1.5,4.19-.75,4,1.2,5.87,2.41,6.36-.15,1.68,1.35,3.52v4l-1.35,3-1.81,2.68-1.65,5.36-1.66,43.9v10l-8.87,2v55l-1.05,1.51v5.36l-1.51,52.78h-2.41v30.49H648.3l-.9,1.18v3.52H612.81V1284l.9,1.84-.75,1.51-1.81-.67v-1.85l-1-2.51-1.65-1-1.51,1.17-.6,2.34-.9,1.34h-1.36l-4.21,2.52v2.51l-3.91,2.35-3.46,5.36-2.4,7.2L588.29,1317h-1.95l-5.64,2-2.64,3.19V1326l3,4.69,2.26,3.35-.9,4,9.92.67,255.74-.37,1.91-7.67v-5.53Zm-121.73-87.68.86-2.4,1-3.07,1.5-4,1.56-2,1.5-.73,1.3.39.56,2.79v2.29l-1.61,1.9-3.46,2.85Zm27.5,41.36V1276l-10.9-.34-2.11-3.52-2.93-1.34-3.28.59-2.21.42-2.48-1.34,1.95-1.09,4.37-2.47,3.15-2.39,2.49-2.68,1.05-3.18,4.74-.84,1.73,4,1.12,3,1,4.35,2.33,1.51Zm7-6.29-1-2-1.62-5.7v-4.6h.49l1.47,3.52,2.25,5.61,1,3.18Z"/><polygon class="cls-15" points="1899 989.63 1899.01 989.67 1898.95 989.66 1899 989.63"/><path class="cls-15" d="M1741.33,983.31s-.1,0-.16-.08l.16-.09.16.09s-.11.08-.16.08"/><polygon points="1774.2 1302.55 1775.17 1301.13 1775.17 1300.23 1775.17 1296.42 1774.2 1294.35 1773.04 1292.87 1772.2 1291.45 1772.2 1290.8 1773.43 1289.64 1775.17 1288.22 1776.79 1286.28 1778.28 1283.83 1778.99 1281.95 1779.51 1279.63 1780.03 1276.72 1780.03 1274.14 1779.64 1271.23 1779.12 1268.97 1778.28 1266.65 1777.37 1264.65 1778.09 1263.94 1778.15 1262.26 1777.7 1259.8 1776.47 1258.46 1774.2 1256.64 1771.75 1255.22 1768.19 1253.54 1765.02 1252.25 1759.97 1251.09 1753.76 1250.5 1750.27 1250.5 1747.94 1250.12 1747.16 1250.12 1747.16 1249.15 1746.19 1248.5 1744.51 1248.5 1740.95 1249.15 1739.5 1248.5 1737.52 1246.82 1736.04 1245.4 1735.58 1244.43 1737.2 1243.53 1737.91 1242.76 1737.59 1241.66 1736.94 1240.62 1737.01 1239.91 1736.23 1239.2 1735.91 1238.94 1735.26 1237.69 1734.36 1235.78 1733.64 1233.75 1733.22 1232.33 1732.83 1231.49 1733.06 1230.23 1733.09 1228.68 1733.64 1227.45 1734 1226.64 1733.84 1226.16 1733.48 1225.35 1732.83 1224.29 1732.25 1223.51 1731.57 1223.38 1730.73 1222.38 1729.92 1221.35 1729.28 1220.18 1728.66 1219.02 1728.21 1217.99 1728.05 1217.34 1728.47 1216.92 1728.6 1216.41 1728.56 1215.92 1728.47 1215.02 1728.05 1214.6 1728.05 1213.99 1727.85 1213.08 1727.37 1212.66 1726.82 1212.66 1726.49 1212.37 1725.75 1211.18 1724.85 1209.95 1724.07 1208.85 1723.29 1207.69 1722.16 1206.59 1720.93 1205.4 1719.51 1204.17 1718.08 1203.23 1716.5 1202.23 1714.91 1201.17 1713.43 1200.33 1711.74 1199.71 1709.8 1198.97 1708.06 1198.29 1706.38 1198 1704.5 1197.71 1702.01 1197.39 1697.9 1197.39 1695.28 1197.39 1694.8 1197.39 1694.54 1198 1694.54 1198.78 1694.34 1199.2 1693.5 1199.33 1692.89 1199.75 1691.95 1200.42 1691.04 1201.04 1690.27 1201.55 1689.56 1202.2 1688.88 1203.01 1688.39 1203.62 1688.23 1204.11 1688.49 1204.85 1688.39 1205.2 1687.78 1205.43 1687.58 1205.59 1687.58 1206.08 1687.97 1206.66 1687.16 1207.01 1686.42 1207.69 1686.09 1208.59 1685.97 1209.5 1685.97 1210.37 1685.42 1210.66 1684.93 1211.37 1684.67 1211.66 1683.77 1211.89 1682.44 1212.11 1681.08 1212.57 1679.92 1213.02 1678.95 1213.79 1678.23 1214.54 1677.68 1215.41 1677.39 1216.25 1677.39 1217.05 1677.39 1217.83 1677.65 1218.25 1677.56 1219.31 1677.68 1220.44 1678.07 1221.57 1678.49 1222.61 1679.27 1223.51 1679.69 1224.22 1680.53 1225.25 1681.18 1226.13 1681.63 1226.58 1681.24 1226.64 1680.6 1226.74 1680.24 1227.13 1679.98 1227.71 1680.01 1228.97 1680.17 1230.61 1680.69 1232.07 1681.6 1233.39 1682.83 1234.78 1684.28 1235.81 1685.8 1236.33 1687.03 1236.68 1688.33 1236.88 1688.36 1237.49 1687.36 1238.91 1686.61 1240.66 1686.06 1242.24 1685.35 1244.27 1685.25 1245.43 1685.35 1246.05 1684.99 1246.86 1684.8 1247.63 1684.74 1248.86 1684.83 1249.97 1684.41 1250.83 1684.09 1251.7 1683.96 1252.38 1684.06 1252.83 1684.61 1252.92 1684.48 1253.31 1684.12 1254.02 1683.7 1254.31 1683.51 1254.67 1683.67 1255.25 1684.12 1255.73 1684.93 1255.96 1685.48 1256.06 1685.19 1256.9 1685.16 1257.77 1684.83 1258.25 1683.86 1258.46 1683.44 1258.96 1682.76 1259.74 1682.08 1261.22 1681.83 1262.39 1681.47 1263.71 1680.98 1264.94 1680.92 1266 1681.44 1267.16 1682.41 1268.04 1683.51 1268.65 1685.25 1268.94 1686.71 1269.1 1686 1272.27 1685.67 1274.08 1685.48 1275.56 1685.42 1277.72 1685.13 1279.98 1684.7 1282.44 1684.19 1284.38 1683.7 1285.76 1683.6 1287.12 1683.7 1288.9 1683.67 1290.77 1683.51 1291.9 1682.73 1293 1681.66 1293.26 1680.01 1293.51 1679.01 1293.87 1676.78 1294.55 1675.19 1295.32 1674.19 1296.32 1673.19 1297.9 1672.61 1298.62 1671.73 1299.94 1670.31 1301.01 1669.66 1302.17 1669.92 1303.3 1670.8 1303.62 1670.44 1304.85 1671.31 1305.23 1675.94 1305.36 1679.43 1305.11 1685.64 1305.01 1690.33 1304.81 1695.86 1303.94 1698.97 1302.85 1699.58 1301.68 1699.9 1299.03 1700.04 1298.29 1700.43 1297.02 1700.26 1295.21 1700 1294.35 1699.44 1293.19 1699.66 1291.64 1700.39 1289.1 1701.43 1285.74 1702.55 1284.15 1703.93 1281.65 1705.09 1279.11 1706.08 1277 1707.64 1273.82 1709.32 1272.57 1711.58 1271.9 1712.1 1271.73 1713.3 1272.07 1714.32 1272.56 1715.17 1273.12 1716.55 1273.79 1717.71 1274.69 1718.7 1275.4 1719.78 1276.17 1720.79 1277.01 1722.39 1278.01 1723.42 1278.61 1729.03 1281.5 1731.29 1282.56 1732.05 1283.25 1733.17 1285.01 1734.63 1286.22 1735.07 1287.42 1737.1 1288.28 1739.01 1288.99 1740.98 1289.83 1740.4 1290.25 1737.33 1290.09 1735.36 1290.83 1733.97 1291.87 1730.93 1294.16 1729.24 1295.19 1728.05 1296.13 1726.79 1297.81 1725.49 1298.94 1724.62 1300.39 1724.49 1301.84 1724.49 1302.23 1725.91 1302.1 1725.65 1303.33 1726.11 1303.81 1729.11 1303.43 1728.92 1304.33 1730.41 1304.56 1743.25 1304.23 1760.98 1304.14 1767.35 1303.88 1771.94 1303.46 1773.59 1303.01 1774.2 1302.55"/><path d="M1642.18,1338.27h158.31v-25.42a11,11,0,0,0-11-10.95H1653.12a10.94,10.94,0,0,0-10.94,10.95Z"/><path d="M1825.94,1338.74H2003.2v-137.4s-56.55-10.12-77.64,25.71c-26.58,45.15-25.42,37.92-68.07,51.19-34.38,10.71-31.55,60.5-31.55,60.5"/></g></g></svg>